/* XPM */
static char *_ec775ce5bc44785bff8f8a0ba89cf15Uy7SV1m4FPmmP2HX[] = {
/* columns rows colors chars-per-pixel */
"64 64 236 2 ",
"   c #0C1610",
".  c #0C2313",
"X  c #132D19",
"o  c #142A18",
"O  c #15341B",
"+  c #163B1D",
"@  c #193B1E",
"#  c #19361E",
"$  c #233C1C",
"%  c #1C3D21",
"&  c #1B3822",
"*  c #253A28",
"=  c #2F3E34",
"-  c #1D451F",
";  c #1C4422",
":  c #1E4A24",
">  c #224C26",
",  c #254D29",
"<  c #224725",
"1  c #235226",
"2  c #255429",
"3  c #2A542C",
"4  c #255A29",
"5  c #2B5B2D",
"6  c #2B5425",
"7  c #315E2E",
"8  c #2E5D31",
"9  c #325D33",
"0  c #36573C",
"q  c #38483C",
"w  c #2D622D",
"e  c #2E6A2E",
"r  c #31642C",
"t  c #346B2E",
"y  c #3B6B2E",
"u  c #3B742F",
"i  c #2E6231",
"p  c #336433",
"a  c #356B34",
"s  c #396C34",
"d  c #376639",
"f  c #376A38",
"g  c #3B6C3B",
"h  c #396637",
"j  c #367233",
"k  c #3B7333",
"l  c #3D7934",
"z  c #3D733B",
"x  c #3E793A",
"c  c #377238",
"v  c #437D2D",
"b  c #45772E",
"n  c #427633",
"m  c #447C34",
"M  c #41763D",
"N  c #437B3C",
"B  c #497E3D",
"V  c #4C7E35",
"C  c #446C3C",
"Z  c #435748",
"A  c #427542",
"S  c #447B42",
"D  c #497D45",
"F  c #4B7C4B",
"G  c #4C6B50",
"H  c #6C7C6F",
"J  c #54962F",
"K  c #458335",
"L  c #4B8534",
"P  c #4C8A34",
"I  c #46823D",
"U  c #4C853B",
"Y  c #4C8A39",
"T  c #528B33",
"R  c #538C3B",
"E  c #578C39",
"W  c #549334",
"Q  c #5B9534",
"!  c #5B933C",
"~  c #599739",
"^  c #4C832F",
"/  c #639B3B",
"(  c #679D37",
")  c #65A532",
"_  c #6BA933",
"`  c #6CA53C",
"'  c #69A437",
"]  c #73AB3B",
"[  c #74AD38",
"{  c #7BB436",
"}  c #7CB438",
"|  c #6CAA2F",
" . c #468242",
".. c #4A8345",
"X. c #4E8A44",
"o. c #4D834A",
"O. c #4E894B",
"+. c #538C43",
"@. c #51864D",
"#. c #538C4C",
"$. c #588B47",
"%. c #5B9544",
"&. c #5C9844",
"*. c #56924B",
"=. c #5A944C",
"-. c #59964A",
";. c #568C52",
":. c #588A57",
">. c #5B9454",
",. c #5D9953",
"<. c #5A9454",
"1. c #629A45",
"2. c #639C5B",
"3. c #639954",
"4. c #719A53",
"5. c #6CA442",
"6. c #67A247",
"7. c #77AC44",
"8. c #7CB147",
"9. c #79AC54",
"0. c #6CA357",
"q. c #5C8660",
"w. c #658D67",
"e. c #699C65",
"r. c #789575",
"t. c #78A668",
"y. c #7AA677",
"u. c #6EA368",
"i. c #86BB3C",
"p. c #89BB45",
"a. c #8BBB4C",
"s. c #84B844",
"d. c #8AB855",
"f. c #8CB756",
"g. c #97BC69",
"h. c #88B37B",
"j. c #8EB575",
"k. c #96C54B",
"l. c #99C556",
"z. c #8EC042",
"x. c #A4CB5A",
"c. c #AACE5C",
"v. c #A3C957",
"b. c #ADD05E",
"n. c #9CC467",
"m. c #9CC574",
"M. c #A4C861",
"N. c #B3D364",
"B. c #BCD66D",
"V. c #B5D36C",
"C. c #ABCC71",
"Z. c #B2CC79",
"A. c #BFD871",
"S. c #B8D473",
"D. c #AED16A",
"F. c #C2D974",
"G. c #C6DC7A",
"H. c #C9DD7C",
"J. c #94B989",
"K. c #99B997",
"L. c #8CAF8A",
"P. c #99A79C",
"I. c #9EC585",
"U. c #A8CA87",
"Y. c #A8C59C",
"T. c #B7D48C",
"R. c #ABC8A7",
"E. c #B2CCAA",
"W. c #B8C9B8",
"Q. c #BCD4B7",
"!. c #BCD2AC",
"~. c #CCDF82",
"^. c #C7DD87",
"/. c #CADD92",
"(. c #CFE083",
"). c #D1E186",
"_. c #D5E38C",
"`. c #D8E48F",
"'. c #DAE694",
"]. c #DCE79A",
"[. c #DEE89B",
"{. c #D5E493",
"}. c #C2D6BE",
"|. c #C5DAB7",
" X c #DFE9A1",
".X c #D9E6A6",
"XX c #DAE7B7",
"oX c #CFE1B7",
"OX c #E2EBA4",
"+X c #E5EDAC",
"@X c #E5EDB4",
"#X c #E8F0B9",
"$X c #BFCFC0",
"%X c #C4CBC5",
"&X c #CAD8C7",
"*X c #D7DCD7",
"=X c #D1DFCA",
"-X c #D6E4C9",
";X c #DDE5DB",
":X c #DBE6D7",
">X c #CFE0CC",
",X c #E6EDC6",
"<X c #E3EADC",
"1X c #E4EAD7",
"2X c #F1F4DE",
"3X c #EAF1D3",
"4X c #E4EAE3",
"5X c #EBEEE5",
"6X c #EFEFEF",
"7X c #EEEEEE",
"8X c #EDEDED",
"9X c #EEEEEE",
"0X c #E2E6E2",
"qX c #EEF0ED",
"wX c #EDF1E2",
"eX c #F2F4ED",
"rX c #F1F2E4",
"tX c #F0EFF0",
"yX c gray94",
"uX c #F1F1F1",
"iX c gray95",
"pX c #F3F3F3",
"aX c #F3F2F3",
"sX c #F1F2F1",
"dX c #F4F4F4",
"fX c gray96",
"gX c #F6F6F6",
"hX c gray97",
"jX c #F7F7F7",
"kX c #F6F5F6",
"lX c #F3F3F3",
"zX c #F7F7F8",
"xX c #F8F7F8",
"cX c #F9F9F9",
"vX c #F9F9F9",
"bX c #EFEEF0",
/* pixels */
"vX8XcX8XcX8XjXyXyXjX8XcX8XcX8XcX9XvX9XvX9XgXpXpXpX9XgX9XvXqXvX8XvX9XqX4XzXdXzXdXeXgX9XgXqXvX8XvX8XvX8XvX9XgXyXfXpXyXgX9XvX8XvX8X",
"yXjX8XjXyXjXyXjXjXyXjX8XjX8XjXqXgX9XfX9XgXtXpXtXpXpXsXgX9XgX9XgX:X>XI.L.J.K.$X>XsXeXgXyXzX9XgX9XfX9XfXyXfXyXfXyXyXfXyXfXyXfX9XfX",
"jXyXjXyXyXyXyXyXyXyXyXjXlXyXyXjXpXpXpXpXpXpXpXpXpXpXpXtXsXpX4XE.e.u.,.<.O.O.,.u.R.:XfXsXtXpXpXpXsXpXpXpXyXfXyXpXfXpXpXsXfXtXfXyX",
"jX8XjXyXjXyXjXjXyXjXyXjXyXlXbXjX9XpXpXpXsXpXpXpXpXpXfXpX4XR.h.,.*.O.<.<.,.-.,.,.-.y.:XhXsXfXyXfXyXfXyXfXyXfXpXfXtXpXfXyXfXyXfXyX",
"8XjXqXjXyXjXyXyXyXtXjXqXjXyXjX8XgXqXfX9XhXsXjXfXpXzXyX$Xu.2.-.-.*.<.;.O.,.&.X.X.*.-.E.qXjXbXzXbXgX9XzX9XfXyXfXyXyXfXyXfX9XgXqXvX",
"cX8XcX8XjXbXjXyXyXjXbXjX8XcX8XcXqXfX9XgX4X&X&XQ.E.Q.Q.e.O.,.<.I I #.X...X.X.X.*.P L *.t.Q.cX8XvX8XvX9XvX9XfXyXfXfXyXfX9XvX8XzX8X",
"8XcX8XjXyXjXyXjXjXyXjXyXjX8XcX8XgXsX5XR.y.<.2.,.<.<.,.,.<.,.*.g x *...A .. .x O.1.%.K J n.;XzX8XgX9XgX9XfXyXfXyXyXfXyXfX9XfX8XvX",
"jXyXjXyXjXyXyXyXyXjXyXjXyXjXyXjXsXeXR.*. .+.Y X.O. .o...S X.&.#...a k p A x ..*.*.,.&.7.a.E.lXfXyXfXyXfXyXfXyXfXfXtXfXyXfXyXfXyX",
"fXyXfXyXfXyXfXyXyXjXyXyXyXjXyXjXtX&X<...<. .R B M n &.D z D *...B 1 w m +.E O.,.<.+.&.8.Z.T.5XfXyXfXyXfXyXfXyXfXfXyXfXyXfXtXfXyX",
"8XfXyXfXyXfXyXfXyXyXjXyXjXyXjX8X4Xe.<.O...m ! X...$.` m p M a k z 3 k Y +.*.Y +.%.&.` 6.s.M.1XyXfXyXgXyXfXyXfXyXyXfXyXfXyXfX9XvX",
"vXyXvX8XfXyXfXyXyXjXyXjXbXzXtX>Xh.<.S D M $.+.N a N E P m ! n m z e I #...I B ~ ~ 5.` ~ ] x.oXhX8XvX8XfXyXfXyXfXfXyXfXyXfXqXvX8X",
"8XvXbXfXyXfXyXfXjXyXjX8XjX8XzXY.O. .X.+.z 2 a h h m m T E L ! T r s t g k I Y ! ] a.` _ ` n.5X8XvX8XvXyXfXyXfXyXyXfXyXgXyXgX8XvX",
"jXyXfXyXfXyXfXyXyXfXyXfXyXvXQ.e.z z z o.C M @.@.d a n V n n T U m t 3 5 r P 5.` 8.d.~ ` s.n.1XjXyXfXyXfXyXfXyXfXfXyXfXyXfXyXfX9X",
"yXfXfXyXyXlXyXfXfXyXlXlX8XR.e.S o...o.C g @.A ..o.g B B b k L T b r t t j L ' } k.8.' Q [ U.5XaXyXfXfXyXfXyXfXyXyXfXyXfXyXfXyXfX",
"qXfXyXfXyXfXyXfXlXyXfXfX=X*...x +.*.#.A g d N B @.O.#.@.! n n ' / V m K Y P W 8.p.T K P ) j.jXeXfXyXfXyXfXyXfXyXfXyXyXfXyXfXyXzX",
"vX8XvX8XfXyXfXyXlXfXyX>Xe. .o.M ..F g p g U E U M N S k L ! %.6.1.>.*.@.-.6.' a.T 4 W P 9.|.qXhX8XvXyXfXyXfXyXfXfXyXfXyXfX8XzX8X",
"8XzX8XjXbXfXyXfXdXsXQ.<.x x z S d A 9 g A A N D A d h 5 s +.$.+.=.=.;.@.*.9.l.k.J w K R E.yXcX8XvX8XvXyXvXyXfXyXfXfXbXfXqXvX8XcX",
"vX8XjX8XfXyXfXyXsX&X2. .c j ;.A d d p A D g d 9 3 > @ 9 @.>.>...@.M g g <.$.9.i.[ r K 7.=XcX8XxX8XfXyXfXyXfXyXsXlXyXfXyXzX8XvX8X",
"yXfXyXfXyXfXsXfX:Xe. .c e i x c 8 p g A F p 2 3 3 7 d 3.>...A A D B D 9 p ..$.7.} k z j.qXeXlXyXfXyXfXyXfXyXfXsXyXyXlXfXyXfXyXfX",
"yXfXyXfXlXyXfXyXY. .S c S a i j s s c M p 3 3 , h O.o.>...z p h g s p h 1 a ..$.7.$.E.8XaXyXjXyXfXyXfXyXyXfXyXyXlXfXyXfXyXfXyXfX",
"vXqXzXyXfXyXfX4Xu.X.O. .N o.g a 5 w v y 7 s 9 F ;.;.:.@. .z X.X.S M D / k 8 s d $.Y R.jXyXjX8XjXyXfX8XfXyXfXyXfXyXyXfXyXfX8XjX8X",
"8XvX8XfXyXfXfXQ.*.O. . . .N x p % 3 6 7 A #.@.=.<.@.#.#.#.A U R ! B M E R 9 3 g N W t.4XxX8XcX8XvX8XvXyXfXyXfXyXfXfXyXfXyXvXyXcX",
"vX8XzX9XzXtX8Xh.#.o.g  .#.o...p 8 &   9 <.;.o.D S o.S D D N U ! 5.+.g k x A C d R / t.8XtXzX8XhX8XvX8XgXyXfXyXfXyXyXfXyXjX8XvX8X",
"8XfXbXzXyXlXQ.O.*.S p A g A g 8 r 7 3 D o.o.D d D S d s h s m T U m n s p z z i T W 1.!.eXyXjXyXfXyXfXyXfXyXfXyXsXfXyXfXyXfXyXfX",
"lXtXfXtXpXsXy.o.X.x e x N g s r y w A A D A D A D d p x n k i t k c m a 3 8 a w x x k 9.<XfXyXlXyXfXyXfXyXlXyXlXfXyXfXyXfXyXfXyX",
"fXyXgXyXfX4X:.S Y  .p x N 7 g k l 3 ;.<.;...z d d 3 5 s I l a k U U N a h z x z j w t ~ |.cXtXjXyXfXyXfXyXfXlXfXfXlXfXyXfXyXfXyX",
"8XgXyXfXsX>X,. .Y s i z g p p s g 9 D @.D M d d d a g r a a s ^ / L N 7 5 a d i l n n U }.tXxXbXvX8XvX8XjXyXfXyXyXfXyXfX8XvX8XvX",
"vX8XvXyXzXW.;. .S s 8 g r I g 8 : A g z M T U d 3 f g p r p w s T a h a i K N c M N M 2.<XxX8XcX8XvX8XjXyXfXyXfXfXyXfX8XjX8XzX8X",
"8XgXyXfXlXR.o.c i p z g d N p 3 3 D g d M U l 8 p 3 8 9 , 2 9 p 5 # % : k K m z I T h.%XfXbXjX8XfXbXjXqXjXyXfXyXlXfXyXfXyXjX8XvX",
"gXyXfXyXyXK.S i z A A g d p 9 3 d f h d z g a i a 3 s k 7 3 p p 9 p 8 a I x I k L ( j.aXyXfXyXfXyXfXyXfXyXlXyXfXlXyXlXlXfXyXfXyX",
"fXyXfXyXqXy.x i S g 5 N A 8 3 X d z g g d d 5 s h 1 r k s > r p 3 2 2 8 a a j N $.1.t.1XfXfXyXfXyXfXyXfXyXfXyXlXlXyXfXyXfXyXfXyX",
"8XgXyXvX;X;.S x c g p k p 8 < # z ..g z d h 2 7 c p t a g a m k p 3 # w c a a U 7.v.S.-XfX8XzXqXzX8XjXbXjXyXfXfXyXfXyXfXqXjX8XvX",
"zX9XzXsXE.x ..o.a r p p w r 6 > x z 9 k p 8 , t k 5 5 9 9 r m t 3 5 5 k K x s *.g.~.)..X8XxXqXhX8XxXqXkX8XjXyXsXjXyXjX8XjX8XcX8X",
"9XzXbXqXy. .S S c k z g r u 2 5 S N g g p 5 < d 3 3 7 3 3 4 a h 8 5 8 t j k m $.Z.^.~.[.,X8XhXqXhXqXhXtXjXyXjXyXyXjXyXjXyXhX8XcX",
"dXbXzX;Xe.c z z d a h 9 < 1 3 * A z d A a a s g p 3 7 t 9 5 4 3 5 5 2 5 a a k R g.D.S.S..X5XqXfXqXjXtXlXyXjXyXjXyXyXjXyXjXyXjX8X",
"dXdXdXbXy.i j c t s p 9 > , > > S p a x 5 p a 9 e a l k 7 3 % 5 3 5 p ; 5 i 5 U f.f.f.C.@X3XqXyXaXaXaXlXyXjXyXyXjXyXyXlXyXyXjXyX",
"9XdXsX8Xe.x z a a i 5 d 3 6 @ < A g i a p 5 > 7 5 r P u i 2 8 < 6 6 > 4 5 j i K f.M.V..X#X#X,XrXkXtXjXbXlXyXyXfXyXlXyXlXyXjXyXjX",
"zXqXzX0X:.z i 8 a 5 w r 5 > > 2 d f 2 i 8 3 3 3 3 6 j r l e ; # b ( V k u a K L s.f.~.OX#X+X'.2XqXhX8XjX8XjXyXfXjXyXjXbXcX8XjX8X",
"9XzXqXdXy.a d : > w a t w O < p p 4 p p p r p 5 3 3 w t 4 6 o n ] s.v r r j K K ! C.+XOX+X@X[.+XjXtXxXbXjXtXaXyXyXjXbXjXbXxX8XcX",
"zXqXzXbXK.w 5 > i r > @ ; > 8 z z 2 d 8 7 s s 5 3 @ 3 L w < $ T E / u r 7 w t $.Z.OX@X#X+X+X[.[.#XlXtXjXyXjXyXfXyXyXlXeXjXqXcX8X",
"bXdXsXfX$Xg 4 5 c 3 > > 4 i a a A i i a i a 3 5 2 5 l c w ; p m b v r w j e 5 g.'.].+X#X+X[.[.OX.X@X,X5XlXyXfXyXlXlXlXlXyXjXtXlX",
"bXdXsXfXsXL.1 5 i i f f 4 f t k z s 5 a p i 8 3 , r v 3 e 1 4 s n y b w 4 P L 4.~._.OX@X[.'.OX[.[.F.B..XeXeXyXyXyXlXyXlXyXjXyXjX",
"zXqXfXbXdXW.c f f a f i a a n k i a 8 f l r > % 2 5 1 < w l j 4 r w r 4 j J &.l.V.^.{..XH._.OXOX).A.H.].@XXX.X5XjXeXlXbXzXqXjX8X",
"qXzXqXfXbXL.c z d s c 2 8 i s p > 8 d p 7 < % > e w ; 4 u e j 4 4 t w 6 I I 7.k.l.V.^.^.N.F.`.OX'.A.).`.'.[.'. XwXjXtXjXtXcX8XcX",
"zXbXzXbXfXL.c f A a i 2 p w a z , < p p 8 5 4 3 a e + : u l s k ^ P K J W ~ ` z.k.M.C.l.' x.H._.[.H.~.`._.`.].].+XrXjXqXjX8XjX8X",
"bXfXbXfXsX>XS i 8 z p d a t g h 5 w 5 p 3 d p w i i 5 : w t L ( a.p.7.~ ` l.l.8.a.l.a.Q s l.N.F.).).G.).`.'.'.OXOX,XyXfXyXjXtXjX",
"sXsXpXpXpX0XF 4 8 f h p 5 p g 9 w u i < 3 a k i 4 5 1 t j j 1.U.Z.g.6.c / k.l.l.s.{ _ P 7.b.N.N.F.(.H.H.`.'.'.[.OX[.,XyXyXjXyXaX",
"zXbXfXbXfX8XF 4 i 8 3 5 < 3 p a w k 5 O > s 4 2 i r e l 6.~ J.qXsX:XQ.R.!.T.n.a.{ _ ) i.a.v.b.N.B.~.(.H.).`.'.'.[.~./.<XjXyXhX8X",
"9XzXqXfXbXsXw.4 5 , 5 i 2 2 p k p 5 : & w c i i c l P 8.l.g.%XvX9XvXyXvXtXfX5X=Xm.) ) { z.k.x.N.B.H.~.).G.H.(._.).N.b./.5XzXbXvX",
"vXbXzXbXzX4X:.5 5 4 i c a d r a 5 4 & ; 4 e e a t P p.k.a.Y.aXqXvX9XvX9XvXqXfXfXwXI.) | { z.k.x.N.F.H.F.B.G.H.G.B.c.N.(.3XbXjX8X",
"bXzXqXfXbXbXw.i i 5 i 8 a i 9 8 ; O ; : X ; 5 e j Q / Q _ j.8XcX9XzX9XfXyXfXyXfXgX4X0.J | { i.k.c.N.c.N.A.H.H.A.N.N.G._.3XzX8XvX",
"fXsXsXsXkXkXy.w 8 2 4 4 4 < p 8 w X . : ; O 4 u P T v T J e.8XyXlXyXfXyXfXyXpXpXpXsXJ.,.6.| { i.i.i.l.B.A.H.~.A.c.B.H.'.wXyXfXyX",
"fXsXfXsXfXiXP.4 4 5 > 8 2 2 p 5 1 : ; ; - + 4 4 t r L Q v t.bXyXfXyXfXyXfXyXpXyXsXpXqX4X:XY.8._ ) i.v.(.F.G.H.A.b.A.F.XXlXyXfXyX",
"8XzXsXfXbXzX&XA > 2 w i 4 8 4 4 4 1 + O - - e 4 - : 4 m t.&X8XxX8XzXyXzXyXfXyXfXpXsXfXyXvXtX>X9._ i.V.(.B.B.F.A.c.b.G.5XbXjX8XvX",
"vXqXzX8XfXbXpXy.1 ; 1 i 1 1 1 % : ; ; ; : O - : - ; w.W.5XtXxX8XvX8XjX8XzXyXfXsXpXfX9XgX9XgXyX:Xd.} x.b.x.c.N.B.x.c.XXbXvX8XzX8X",
"8XzX8XzXsXfXfXL.1 ; 2 : 4 4 > 1 : ; ; ; : ; : : : 1 W.vXtXzXbXhX8XzXyXjXyXfXyXpXpXyXfXyXgXyXgXtXU.` ] } z.k.k.v.v.T.5XjX8XjX8XvX",
"gX9XfXyXfXtXzX&Xd O 4 : ; : 5 4 1 1 : 1 4 e e 1 e r.qXyXfXyXjXyXfXyXfXyXfXyXfXfXpXpXyXpXyXfXyXpXy.c K J _ i.i.z.D.1XjXyXlXlXjXbX",
"pXpXpXyXpXpXtXyXK.5 4 : : ; : 4 ; ; % 4 e K v e e w.8XlXfXyXfXyXfXyXfXyXsXyXfXyXpXpXpXpXpXpXpXpX0XW.K.o.J | i.C.1XfXjXyXyXyXjXyX",
"9XgXyXzX9XzXpXpX8Xq.: : : , : : # + % : : w w : - 8 *XhXyXfX8XhXyXhXyXfXyXfXyXfXpXyXfXyXfXyXgXyXvXfXzX&XJ.U.oX5XfXaXyXjXeXjX8XcX",
"vX9XvX9XgX9XpXpXbX$XG + : , ; : ; O - 4 ; X : - & L.fXyXjX8XvX8XhX8XvX8XfXyXfXyXpXfXyXgX9XgX9XgX9XgXbXvXtXzXlXlXyXeXjX8XjX8XjX8X",
"8XvX9XgX9XfXyXfXzXaX%XG + + + ; * & : e ;   . . Z 8XaXzXyXjX8XjX8XjX8XfXyXfXyXfXpXyXfX9XgX9XgX9XgX9XgXyXjXyXjXfXyXjXyXjX8XzX8XcX",
"gX9XzXyXzXtXpXtXaXaXzX$X0 X X X o o & ; .   o = P.zXtXaXfXyXjXyXjXyXjXyXfXyXfXyXpXpXyXgXyXgX9XgXyXgXyXgXyXjXyXyXyXyXjX8XjXbXzX8X",
"pXfXyXpXtXzXaXzXaXaXaXzX%XH * & * q Z G H %X%X*XtXtXtXzXyXfXyXfXyXfXyXfXyXfXyXfXpXpXpXpXpXpXfXpXpXpXpXpXyXyXjXyXfXyXyXjXfXyXyXjX",
"8XgX9XfXtXiXbXiXtXbXaXaXzX0X*X$X%X0X0XbXxXxXzXfXfXzXtXlXyXfXyXfXyXjXyXjXyXfXyXyXpXyXpXyXfX9XgX9XgX9XgX9XjXyXfXlXyXjXyXjXyXjX8XvX"
};
