/* XPM */
static char *_1782b53174b4e99f7255c17c2a35f27gEDNmNY5xuK37iSn[] = {
/* columns rows colors chars-per-pixel */
"50 44 219 2 ",
"   c #011204",
".  c #05180B",
"X  c #0A3612",
"o  c #15341B",
"O  c #163A1D",
"+  c #1A3B1E",
"@  c #1B371E",
"#  c #08240F",
"$  c #203E1F",
"%  c #1B3D21",
"&  c #1B3421",
"*  c #1A481F",
"=  c #19501D",
"-  c #1D4522",
";  c #1D4B24",
":  c #224C26",
">  c #244E29",
",  c #254B29",
"<  c #235326",
"1  c #26552A",
"2  c #2A542C",
"3  c #255A2A",
"4  c #2B5B2D",
"5  c #295626",
"6  c #2E5D31",
"7  c #2C5730",
"8  c #315E33",
"9  c #325E38",
"0  c #355F29",
"q  c #2C622D",
"w  c #2C6929",
"e  c #32652D",
"r  c #346A2E",
"t  c #356629",
"y  c #3B722F",
"u  c #3A7A2A",
"i  c #2E6331",
"p  c #2F6B30",
"a  c #326433",
"s  c #356B34",
"d  c #396D34",
"f  c #366638",
"g  c #3A653A",
"h  c #376B39",
"j  c #3B6D3A",
"k  c #386436",
"l  c #357233",
"z  c #3B7434",
"x  c #3C7A34",
"c  c #3C733B",
"v  c #3E7A3A",
"b  c #467B2C",
"n  c #417434",
"m  c #437B32",
"M  c #42753C",
"N  c #437B3D",
"B  c #4B7C39",
"V  c #3E4541",
"C  c #3F7541",
"Z  c #416F41",
"A  c #436A48",
"S  c #427541",
"D  c #457B42",
"F  c #4A7D46",
"G  c #4B7E49",
"H  c #525652",
"J  c #3E8127",
"K  c #43841D",
"L  c #49882A",
"P  c #4B9225",
"I  c #5A9B29",
"U  c #458134",
"Y  c #4D8434",
"T  c #4C8A33",
"R  c #45823B",
"E  c #4B843C",
"W  c #4C893A",
"Q  c #538D35",
"!  c #538C3B",
"~  c #528739",
"^  c #569334",
"/  c #5E9C35",
"(  c #5A953B",
")  c #5E9A39",
"_  c #579339",
"`  c #5DA027",
"'  c #6DAB2D",
"]  c #6AA535",
"[  c #6DA43B",
"{  c #6BA83A",
"}  c #74AA3D",
"|  c #73A73E",
" . c #7DB634",
".. c #72AF27",
"X. c #478243",
"o. c #4B8344",
"O. c #4D8B45",
"+. c #4D8449",
"@. c #4F8A4A",
"#. c #528C46",
"$. c #528C4C",
"%. c #538548",
"&. c #4E9142",
"*. c #569245",
"=. c #5A9346",
"-. c #55914B",
";. c #5A934B",
":. c #5D9948",
">. c #588E55",
",. c #598E56",
"<. c #5A9454",
"1. c #5B9951",
"2. c #599454",
"3. c #659D47",
"4. c #629957",
"5. c #6CA343",
"6. c #65A047",
"7. c #74AB44",
"8. c #79AE46",
"9. c #7CAE4B",
"0. c #7CB343",
"q. c #7CAD55",
"w. c #5F8B60",
"e. c #618D61",
"r. c #719271",
"t. c #6CA167",
"y. c #75A668",
"u. c #7CAA77",
"i. c #7FB177",
"p. c #83B93B",
"a. c #91C23D",
"s. c #8CBD44",
"d. c #84B947",
"f. c #8DB755",
"g. c #9BBE5A",
"h. c #98BE67",
"j. c #80A87F",
"k. c #88B579",
"l. c #92C24C",
"z. c #96C446",
"x. c #91C152",
"c. c #9DC753",
"v. c #9BC557",
"b. c #A7CC59",
"n. c #ABCF5E",
"m. c #A5CE53",
"M. c #99C36F",
"N. c #A7CD65",
"B. c #AFD161",
"V. c #B5D466",
"C. c #BAD66C",
"Z. c #BAD66C",
"A. c #BAD677",
"S. c #A6CC76",
"D. c #C4DA75",
"F. c #C7DC79",
"G. c #CADE7D",
"H. c #8A998D",
"J. c #86AC84",
"K. c #8BB485",
"L. c #8DB38C",
"P. c #97B78D",
"I. c #97A499",
"U. c #A3BE99",
"Y. c #AEB2AF",
"T. c #AABFB0",
"R. c #BBBFBD",
"E. c #B2D180",
"W. c #AFCC93",
"Q. c #A8C4A6",
"!. c #BBD5A7",
"~. c #B8CCB4",
"^. c #BBD2B4",
"/. c #BCD3B8",
"(. c #CCDE83",
"). c #C8DB87",
"_. c #C8DD98",
"`. c #CEE084",
"'. c #D1E284",
"]. c #D4E38B",
"[. c #DAE88D",
"{. c #DAE593",
"}. c #D9E698",
"|. c #CDE198",
" X c #E0E99D",
".X c #C2D7BA",
"XX c #DCE9A3",
"oX c #E3EBA4",
"OX c #E3ECAC",
"+X c #E8EEA7",
"@X c #E6EFB4",
"#X c #ECF2BD",
"$X c #EAF0AE",
"%X c #BECAC0",
"&X c #CEDBCD",
"*X c #C4D3C3",
"=X c #D0DFCF",
"-X c #D4DAD5",
";X c #C1CAC3",
":X c #D5E4C8",
">X c #DAE5D6",
",X c #E7ECCD",
"<X c #EDF2CE",
"1X c #E4EBDC",
"2X c #E7ECD7",
"3X c #EFF3D6",
"4X c #E5EAE4",
"5X c #EAEEE6",
"6X c #EDEFEC",
"7X c #EFF0EE",
"8X c #ECF0E5",
"9X c #F0F1EF",
"0X c #F6F5F6",
"qX c #F2F2F2",
"wX c #F5F4F9",
"eX c #F9F6F9",
"rX c #F9F6FB",
"tX c #FDFAFD",
"yX c #F8F8F7",
/* pixels */
"0XqXqXqXqXqXqXqXqXqXqXqXqXqXqXqXqXqXqX7XqXqX7X7XyXtX5X>X>X4XwXwX0X9X9XqXqXqXqXqXqXqXqXqXqXqXqXqXqX7X",
"7XqXqXqXqXqXqXqXqXqXqXqXqXqXqX7XqXqXqXqX7XqXrXtX=XK.i.1.2.t.k./.7XqX9XqXqXqXqXqXqXqXqXqXqXqXqXqXqXqX",
"qXqXqXqXqXqXqXqXqXqXqXqXqXqXqXqXwXyX0XyXwXqX/.K.1.O.@.2.:.-.-.&.i.yXrX9XqXqXqXqXqXqXqXqXqXqXqXqXqXqX",
"qXqXqXqXqXqXqXqXqXqXqXqXqXqXqXrX5X4X>X>X8XJ.X.1.O.#.-.+.;.*.@.W W K.&X0X9XqXqXqXqXqXqXqXqXqXqXqXqXqX",
"qXqXqXqXqXqXqXqXqXqXqXqXqXqX5XK.4.<.1.<.4.-.2.:.S N #.c X.C X.3.=.J { >X0XqXqXqXqXqXqXqXqXqXqXqXqXqX",
"qXqXqXqXqXqXqXqXqXqXqXqXqX7Xu.v O.W X.M E X.c ;.:.N 5 d X.R $.<.-.6.c.!.rX9XqXqXqXqXqXqXqX0XqXqXqXqX",
"qXqXqXqXqXqXqXqXqXqXqX7X0XK.X.>.X.3.D N 5.m d M j c 5 E *.*.O.=.=.] 9.N.1X0XqXqXqXqXqXqXqXqXqXqXqXqX",
"qXqXqXqXqXqXqXqXqXqX9XtXK.@.+.R z N z d E ~ Q ! U f z O.N N W ) 8.] / v.1X0X9XqXqXqXqXqXqXqXqXqXqXqX",
"qXqXqXqXqXqXqXqXqX7XtX^.X.h F X.g D F a n B n Y Q y 4 4 q ( { 0.f./  .M.5XqXqXqXqXqXqXqXqXqXqXqXqXqX",
"qXqXqXqXwXqXqX7XqXrXP.X.F #.+.j S D %.G o.E B y ( b t y z L { v.| W I S.eXqXqXqXqXqXqXqXqXqXqXqXqXqX",
"qXqXqXqXqXqX7XwX0XQ.J X.F %.M g c ~ N X.%.N _ Y 5.3.;.$.=.( 8.[ w T ) W.eXqXqXqXqXqXqXqXqXqXqXqXqXqX",
"qXqXqXqXqX7XwX7Xi.c v G Z h 6 M D M D g 5 < N 4.O.$.#.+.;.q.m.] 4 P k.tX6XqXqXqXqXqXqXqXqXqXqXqXqXqX",
"qXqXqXqXqXqXyXi.l l q X.h i g G Z 2 2 , 1 G <.G F o.M 9 S @.5.d.d U .XeXqXqXqXqXqXqXqXqXqXqXqXqXqXqX",
"qXqXqXqXqXrXQ.x C C h a z f n M 2 5 2 F $.<.D d j j j M < z F 5.;.-XyX0XqXqXqXqXqXqXqXqXqXqXqXqXqXqX",
"qXqXqXqXqX0Xt.O.-.X.X.v > 1 t a M F <.>.,.$.F E #.~ S ( ! 2 8 N T ~.eXqXqXqXqXqXqXqXqXqXqXqXqXqXqXqX",
"qXqXqXqXrX~.&.X.c +.X.D 4 , . G <.%.D o.D F S m ( 5.N s M S k ~ I U.tX7XqXqXqXqXqXqXqXqXqXqXqXqXqX7X",
"7XqX7XwX5X<.O.c f c C d 4 a j D F S c G a z d s n z z n 4 j q m T =.:XqX9XqXqXqXqXqXqXqXqXqXqXqXqXqX",
"wXqX7XtX*Xc O.v s E 8 a U 2 $.,.+.C j a 2 d N d s ~ W a a j c l q u W.eX9XqXqXqXqXqXqXqXqXqXqXqXqXqX",
"qXqXqXrXQ.J O.r 8 j d f e 8 F F N n k 8 z a s s m ) v j 4 c h z M w P.tX9XqXqXqXqXqXqXqXqXqXqXqXqXqX",
"7XqX7XrXL.C h f M a N f : S h g ~ E 2 8 a a : 8 a 0 + > l W c R ~ P.4X0XqXqXqXqXqXqXqXqXqXqXqXqXqXqX",
"wXqXqXqXt.i c S j c f 2 2 c k j j i s 4 6 n 5 2 k 2 8 i v x v E ^ ^.rX9XqXqXqXqXqXqXqXqXqXqXqXqXqXqX",
"7XqX0X4XX.C c f a j 8 @ : X.j h h 2 s s q c g r d 8 - 1 s a z 3.f.E.qXqX9XqXqXqXqXqXqXqXqXqXqXqXqXqX",
"wX7XtXQ.l $.d s s i r : j D k s 6 ; s a 4 2 7 x z 5 4 e R x B h.[.[.2XwX9XqXqXqXqXqXqXqXqXqXqXqXqXqX",
"7XqXqXt.l S j l j 2 0 < 8 D j j a a g 2 4 e 2 4 4 4 4 q r l N h.A.A.|.8X0XqXqXqXqXqXqXqXqXqXqXqXqXqX",
"7XqXrXu.q c p s 8 > , + k j s j e s q e x m 5 : 2 2 2 : 4 i q d.f.f.OX<X8XqXqXqXqXqXqXqXqXqXqXqXqXqX",
"wX7XrX,.v a s 4 q t < + a M 1 i 2 , 2 2 m r s 2 & t b i s l z 9.b.].<XOXOXwXqX7XqXqXqXqXqXqXqXqXqXqX",
"7X7XtXj.w 7 ; i e q O 1 j 1 i k a a 4 2 < d q o 0 d.} r t x U ! A.OXOX#X{.<XwXwXqX9XqXqXqXqXqXqXqXqX",
"wX7XtXQ.= 2 i i % % 4 a N a a 6 a e 2 : q U 1 * Y Y b 4 a 1 B ).+X#X@X}.}. X3X7XqXqX0XqXqXqXqXqXqXqX",
"7XqXqX0Xe.* s 6 s a p d c z 4 s s 6 > 2 m 5 q 5 d y y r 4 T %.G.{.OXOX{.oX XG.D.,XqX7XqXqXqXqXqXqXqX",
"qXqX7XtXJ.p h s f 4 a m 4 8 a d t % - a ; : l l 3 3 q < x ^ d.n.A.}.'.G.oX XZ.(.}.OX|.<XwXqXqXqXqXqX",
"wXqX7XwXe.p C s 6 4 4 c 6 - s a 2 : 4 l ; : x l l U U Q ) ! d.s.N.A.| g.G. X(.G.].]. X[.<XwXqXqXqXqX",
"7XqX7XtX~.3 6 j f s s j 6 e 4 6 8 c q q 4 < q u 7.l.0.L / m.f.s.l.] t b.V.F.].G.].{.}.oXoX2XwXqXqXqX",
"wXqX7XtX*X< i 6 6 , 2 g 4 x 4 o i a 3 i 3 x _ ;.-X2X!.J.P.S.c. .' ] s.m.B.V.G.(.(.].{. X{.(.5XqXqXqX",
"7XqX7XrX&Xq 3 1 a i 2 r d i * $ x a i l ^ l.v.~.rXeXrXrXrXwX5X!.] ' s.z.m.V.D.].F.F.(.].D.m.).qXqXqX",
"qXqXqXrX&Xi i 4 a s a a 4 % & - + r w x } | 8.&XqXqXqXqXqXqXqXrX.XP ` p.z.b.V.V.V.F.F.Z.b.D.].8XqXqX",
"qXqXqX0X5Xj 3 1 1 3 : a i o o ; O ; x T Y Q K ~.rXqXqXqXqXqXqXqXwXJ.q.{ ..d. .c.D.F.(.C.B.G.}.qXqXqX",
"7XqXqXqXyX,.; 3 i 1 4 6 2 1 + - O w 3 , q b 4.>XeXqXqXqXqXqXqXqX7XtXtX4XM.I  .C.G.D.G.Z.n.Z.,XwX9XqX",
"qXqXqX7XtX*X< ; 4 3 1 ; ; ; @ * O O < X A ~.7X0XqXqXqXqXqXqXqXqXwX7X9XwXtXW. .N.n.b.B.D.z.|.wX9XqXqX",
"qXqXqXqX0X4X6 O 1 - < 1 < ; - < 5 3 ; 3 /.tXqXqXqXqXqXqXqXqXqXqX7XqXqX7XrX&XJ T ' p.s.p.A.qX0XqXqXqX",
"qXqXqXqX7XtXQ.; 1 - - 1 < - - 3 x U q s &XeX7XqXqXqXqXqXqXqXqXqXqXqXqXqXwX4XQ.L.U ' p.E.6X0XqXqXqXqX",
"qXqXqXqXqX7XtXr.X < 3 ; - o % ; - 6 < o %XtX7XqXqXqXqXqXqXqXqXqXqXqXqXqXqX0XtXtX-X.X1XwXqXqXqXqXqXqX",
"qXqXqXqXqXqXwXwXH.X O - ; % < p   .   H.tX6XqXqXqXqXqXqXqXqXqXqXqXqXqXqXqXqXqXqX0XtXqXqXqXqXqXqXqXqX",
"qXqXqXqXqXwX9XqXtXI.% . . # o O V H r.5X0X7XqXqXqXqXqXqXqXqXqXqXqXqXqXqXqXqXqXqXqX7XqXqXqXqXqXqXqXqX",
"qXqXqXqXqX7XqX7X7XtX-XI.I.Y.R.-XeXtXrXyX7XwXqXqX0XqXqXqXqXqXqXqXqXqXqXqXqXqXqX0XqXqXqXqXqXqXqXqXqX0X"
};
