/* XPM */
static char *c9604d271611475af5fd60a005280d55Ey80q9g4FGLJgNWc[] = {
/* columns rows colors chars-per-pixel */
"64 64 205 2 ",
"   c None",
".  c #0C0D0C",
"X  c #040505",
"o  c #0F100F",
"O  c #10110F",
"+  c #121411",
"@  c #181817",
"#  c #1D1E1B",
"$  c #1E2219",
"%  c #22231E",
"&  c #1F1F26",
"*  c #201C2C",
"=  c #1F2121",
"-  c #252624",
";  c #292A24",
":  c #2E2D2A",
">  c #302F2A",
",  c #33332E",
"<  c #242230",
"1  c #322C3B",
"2  c #343432",
"3  c #393734",
"4  c #3B3B36",
"5  c #3E3D3B",
"6  c #3A3638",
"7  c #43413D",
"8  c #322642",
"9  c #3E2F59",
"0  c #413E48",
"q  c #443959",
"w  c #4B3563",
"e  c #4D3E69",
"r  c #4E3C64",
"t  c #4A367A",
"y  c #4D397D",
"u  c #483677",
"i  c #553E7F",
"p  c #434343",
"a  c #494744",
"s  c #48444B",
"d  c #52514E",
"f  c #554B5F",
"g  c #565555",
"h  c #5A5751",
"j  c #635F5B",
"k  c #4F426A",
"l  c #4C4660",
"z  c #55496D",
"x  c #585062",
"c  c #554474",
"v  c #584B7A",
"b  c #5E5877",
"n  c #635B68",
"m  c #64597A",
"M  c #65587A",
"N  c #6A676C",
"B  c #706E6B",
"V  c #6D627A",
"C  c #736A7D",
"Z  c #737271",
"A  c #76757D",
"S  c #7B7D7B",
"D  c #4F3984",
"F  c #533C85",
"G  c #563E8A",
"H  c #544583",
"J  c #5A4E84",
"K  c #574089",
"L  c #5B438E",
"P  c #5E4D8A",
"I  c #544986",
"U  c #5E538A",
"Y  c #5D4492",
"T  c #604F8C",
"R  c #63558E",
"E  c #665589",
"W  c #604795",
"Q  c #634B94",
"!  c #624799",
"~  c #664B9A",
"^  c #6A4E9D",
"/  c #645392",
"(  c #695696",
")  c #675D94",
"_  c #695B91",
"`  c #665298",
"'  c #6C529C",
"]  c #6C599C",
"[  c #71569D",
"{  c #735B9D",
"}  c #69658D",
"|  c #756D86",
" . c #777585",
".. c #6C6496",
"X. c #6E6599",
"o. c #736A95",
"O. c #7D6D94",
"+. c #746D9B",
"@. c #7B6D9C",
"#. c #766699",
"$. c #76729C",
"%. c #7B729D",
"&. c #7F789A",
"*. c #6D52A1",
"=. c #6E5CA5",
"-. c #7256A3",
";. c #755AA4",
":. c #795EA6",
">. c #7A5EA9",
",. c #7459A9",
"<. c #7762A4",
"1. c #7C62A5",
"2. c #7A6BA3",
"3. c #7662AB",
"4. c #7D62AA",
"5. c #7E63AA",
"6. c #7D61A9",
"7. c #7F64AB",
"8. c #7F64A9",
"9. c #7F64AC",
"0. c #7C63AA",
"q. c #7E6AAD",
"w. c #7E69B0",
"e. c #817F83",
"r. c #827B8B",
"t. c #857C95",
"y. c #887A99",
"u. c #917E9E",
"i. c #8266A7",
"p. c #8166AB",
"a. c #8165AC",
"s. c #8267AD",
"d. c #8167AD",
"f. c #8166AB",
"g. c #8368AE",
"h. c #856AAE",
"j. c #856AAD",
"k. c #886DAE",
"l. c #886CAF",
"z. c #8368A7",
"x. c #8375A3",
"c. c #8C7BA4",
"v. c #8C71AD",
"b. c #8877AB",
"n. c #876CB0",
"m. c #856CB2",
"M. c #896DB0",
"N. c #8A6FB1",
"B. c #896EB1",
"V. c #8572B3",
"C. c #8B70B2",
"Z. c #8D72B2",
"A. c #8C73B3",
"S. c #8D7AB6",
"D. c #8D7BBC",
"F. c #8671B8",
"G. c #9175B5",
"H. c #9176B4",
"J. c #937AB6",
"K. c #997CB6",
"L. c #937CBA",
"P. c #9A7EB9",
"I. c #89838C",
"U. c #8E8C8E",
"Y. c #868587",
"T. c #918F8B",
"R. c #8F908D",
"E. c #8A8496",
"W. c #918C93",
"Q. c #9B9994",
"!. c #95919B",
"~. c #9D9C9B",
"^. c #999796",
"/. c #A0A29C",
"(. c #9E9AA1",
"). c #9C92AA",
"_. c #9283B5",
"`. c #9A8AB2",
"'. c #9482BC",
"]. c #9C83BB",
"[. c #9B8CBE",
"{. c #9688BE",
"}. c #A798AF",
"|. c #A493B3",
" X c #A697B8",
".X c #A9A8A6",
"XX c #AEA8B8",
"oX c #B2AFB4",
"OX c #B5A5B4",
"+X c #BABBB7",
"@X c #9C8CC3",
"#X c #9986C4",
"$X c #BAAFCC",
"%X c #C8C8C8",
"&X c #CCC5D4",
"*X c #CDC9D4",
"=X c #D2CAD7",
"-X c #D5D2DB",
";X c #DBD9DC",
":X c #E4E4E4",
">X c #EFEFF0",
",X c #F1EFF3",
"<X c #F5F3F6",
"1X c #FEFEFE",
"2X c #F8F7F9",
/* pixels */
"                                                                                                                                ",
"                                                                                                                                ",
"                                                                                                                                ",
"                                                                                                                                ",
"                                                                                                                                ",
"                                                                                                                                ",
"                                                                                                                                ",
"                                                                                                                                ",
"                                                                                                                                ",
"                                                                                                                                ",
"                                                                                                                                ",
"                                                          ^                                                                     ",
"                                                      { ' ^                                                                     ",
"                                                      { [ [ ^                                                                   ",
"                                [ ~ Q   ^ ^             ^ -.;.^                                                                 ",
"                                [ [ ^ ^ Q Q ^           [ >.-.^ ^                                                               ",
"                                [ ;.' ^ ^ ^ ! ^ ^ ,.[ :.i.z.>.-.*.!                                                             ",
"                                  ;.:.-.^ ^ *.~ ~ -.-.-.a.k.a.;.>.*.! D                                                         ",
"                                  i.p.>.>.^ ^ ^ ~ ^ ;.-.-.p.p.a.g.,.*.Y                                                         ",
"                                  z.Z.5.a.>.,.,.-.~ -.,.-.:.a.:.m.0.' ~ Y F                                                     ",
"                                [ h.G.G.N.G.a.,.*.*.^ >.-.>.:.5.8.5.-.' Y F                                                     ",
"                                  [ i.k.G.P.n.a.>.;.:.>.>.:.5.6.5.,.,.-.~ Y G u                                                 ",
"                                    :.h.G.N.N.h.p.;.;.>.5.5.k.p.>.5.:.;.~ ! G t                                                 ",
"                                      h.n.M.G.Z.a.5.5.3.g.a.5.a.a.1.3.6.;.~ ! G t i                                             ",
"                                  z.i.{ 1.G.H.Z.h.n.B.n.B.B.h.5.p.5.a.l.a.;.' L D                                               ",
"                            { ;.:.h.:.    k.B.N.G.n.5.s.m.h.B.k.6.5.>.p.a.p.:.^ F y                                             ",
"                            [ 8.p.;.;.:.l.a.>.s.A.B.s.>.4.>.8.k.8.h.k.5.a.p.;.[ K y                                             ",
"                              z.p.5.h.h.a.>.:.,.a.h.n.s.8.5.;.5.g.z.Z.C.h.5.:.[ L G                                             ",
"                              H.N.N.G.M.g.4.;.>.a.>.:.5.4.a.l.k.s.z.s.H.a.>.5.-.W F                                             ",
"                              v.K.K.P.G.G.N.a.>.,.^ ~ *.:.4.v.Z.j.h.j.Z.a.-.>.;.Q L                                             ",
"                            K.K.G.P.P.P.G.P.P.N.>.-.[ :.5.h.B.H.j.g.j.Z.s.-.{ ;.W Q                                             ",
"                          J.K.K.].P.P.K.].#XP.N.a.>.;.h.G.1.p.k.A.p.s.h.i.[ ,.>.! W                                             ",
"                              G.P.P.P.].H.N.S.j.g.:.-.H.G.;.;.h.J.k.:.1.-.g.`.y.&.] u                                           ",
"                                  l.K.G.m.G.n.a.3.-.-.v.B.a.' p.K.h.a.>.V.oX/.+X.XY.|                                           ",
"                                  z.:.1.l.K.B.>.;.;.a.s.H.h.>.{ K.h.>.,.XX~.;X1X>XoXS U.                                        ",
"                                      z.p.>.>.a.s.,.m.z.G.k.B.~ '. Xt.x.(.%X<X}.<X:Xe.|                                         ",
"                                              ;.>.>.s.z.s.K.a.].}.e./.T.Z %X<X|.1X&XA }                                         ",
"                                                  ;.a.n.a.N.G.oXe.-X1X:XY.R.:X1X&Xt.A U $.                                      ",
"                                                    -.>.n.n.].Q.-X2XM =X%XZ ~.!.I.U.v J +.                                      ",
"                                                      [ h.n.c.T.:X2Xy.;X%XN f C V e e U X.                                      ",
"                                                        :.>. .Q.oX>X1X-X!.n 9 I H I J U ..$.                                    ",
"                                                            B Y.Q./.(.W.Y.r / =.` ` Y / ) +.                                    ",
"                                                              o.%.y.r.| c U =.=.*.` / / ..o.                                    ",
"                                                              x.2.] / T ] 3.V.w.3.=.` / / X.                                    ",
"                                                                b.V.q.q.w.V.'.'.D.&Xc.).O.&.                                    ",
"                                                                  S.V.V.S.D.D.$X|.XXu.c.y.%.$.                                  ",
"                                                                  _.'.'.D.'.|.`. XS.F.3.*.*.X.                                  ",
"                                                                    {.V.v @.[.].#X'.V.q.;.( ) o.                                ",
"                                                                    [.S._.@X@X].S.A.g.<.] ( E o.                                ",
"                                                                    [.[.@X'.L.D.A.m.1.{ ] ( E o.                                ",
"                                                                    {.{.'.L.S.S.A.q.<.{ ( / } $.                                ",
"                                                                    @X'.'.S.A.A.j.q.#.[ ( R E b                                 ",
"                                                                    @.D.D.S.V.V.q.<.] ] / R R l                                 ",
"                                                                    g M m.S.V.q.2.;.] ( / / c 9                                 ",
"                                                                    x.d f 1.F.m.3.,.] ( E c 1 a                                 ",
"                                                                    #Xb.g s E ..E b z q 1 : > z                                 ",
"                                                                  @X{ m.A.5 , 7 4 > ; % ; , 6 e                                 ",
"                                                                  '.r z m a 7 4 , 5 j 7 > 4 2 e                                 ",
"                                                                  2.w ; : 4 4 3 > a h , > 3   q                                 ",
"                                                              $ m ;.    , # - : 2 : # @ %     9 k 4 = :                         ",
"                                                          : 2 s 2.E     5 ; # o     + . +     8 9 < . $                         ",
"                                                          2 : J #.    = . . .       ; . X %     8 =                             ",
"                                                                    p - . @ #       ; % $ ; 8                                   ",
"                                                                      # O #                                                     "
};
