/* XPM */
static char *_8bd83374c794d3b8a83239f6520378bDqwthpWjGVQI1L2U[] = {
/* columns rows colors chars-per-pixel */
"64 64 248 2 ",
"   c #180707",
".  c #290105",
"X  c #380505",
"o  c #340C12",
"O  c #440103",
"+  c #4D0402",
"@  c #4A0609",
"#  c #4D180F",
"$  c #480615",
"%  c #590B1A",
"&  c #471218",
"*  c #59161D",
"=  c #520D01",
"-  c #650B1C",
";  c #63161C",
":  c #640000",
">  c #692B1A",
",  c #481625",
"<  c #581A29",
"1  c #470D23",
"2  c #660E22",
"3  c #6D1B29",
"4  c #6B1729",
"5  c #741C2C",
"6  c #771729",
"7  c #7A1A32",
"8  c #680D2D",
"9  c #572629",
"0  c #5D3738",
"q  c #53272E",
"w  c #6A242D",
"e  c #652527",
"r  c #72222E",
"t  c #7D272E",
"y  c #77312D",
"u  c #6D2B32",
"i  c #6A2739",
"p  c #7C2333",
"a  c #752B37",
"s  c #752D39",
"d  c #7C2B39",
"f  c #7A2835",
"g  c #74343C",
"h  c #7A323D",
"j  c #783538",
"k  c #775419",
"l  c #6C492B",
"z  c #7D3442",
"x  c #753A42",
"c  c #7A3B46",
"v  c #693F41",
"b  c #6B4649",
"n  c #7B444A",
"m  c #6E514B",
"M  c #7A4D53",
"N  c #745452",
"B  c #7A625E",
"V  c #7A5C66",
"C  c #736967",
"Z  c #87151A",
"A  c #871504",
"S  c #A31B05",
"D  c #912300",
"F  c #821729",
"G  c #871A33",
"H  c #931D36",
"J  c #961426",
"K  c #832434",
"L  c #8B253A",
"P  c #872A37",
"I  c #942B3C",
"U  c #942538",
"Y  c #8B333C",
"T  c #853939",
"R  c #99363F",
"E  c #A82F38",
"W  c #895813",
"Q  c #B94C0F",
"!  c #8B4131",
"~  c #B55829",
"^  c #AA752C",
"/  c #927227",
"(  c #D17128",
")  c #8B2D44",
"_  c #932D42",
"`  c #9B2B43",
"'  c #99284E",
"]  c #8C3343",
"[  c #873B47",
"{  c #973849",
"}  c #8D3F52",
"|  c #9A3D51",
" . c #AD2E47",
".. c #A4344C",
"X. c #AB3B4D",
"o. c #A73649",
"O. c #B43A4E",
"+. c #BF334E",
"@. c #A63B54",
"#. c #B83956",
"$. c #AC376B",
"%. c #C83E65",
"&. c #C63852",
"*. c #86464A",
"=. c #9A444A",
"-. c #974857",
";. c #89555A",
":. c #8A495A",
">. c #AD4A5C",
",. c #A54658",
"<. c #B44B5A",
"1. c #BD4B5C",
"2. c #B74557",
"3. c #A7545B",
"4. c #B24E51",
"5. c #B96A5C",
"6. c #9B4A62",
"7. c #965B69",
"8. c #AB4C65",
"9. c #A84962",
"0. c #B64A64",
"q. c #A65767",
"w. c #BC5261",
"e. c #BC526B",
"r. c #B55867",
"t. c #AE5578",
"y. c #8E6A6C",
"u. c #976267",
"i. c #9B6777",
"p. c #897374",
"a. c #9C7A7D",
"s. c #8F6573",
"d. c #BA7478",
"f. c #AD6A73",
"g. c #C34859",
"h. c #C8515B",
"j. c #C94445",
"k. c #C9645D",
"l. c #D37B4D",
"z. c #C94D67",
"x. c #C85568",
"c. c #D25B67",
"v. c #C74973",
"b. c #D75C78",
"n. c #CA5B77",
"m. c #E05A73",
"M. c #C46366",
"N. c #C66678",
"B. c #D36677",
"V. c #CF746E",
"C. c #B4911D",
"Z. c #DF870B",
"A. c #DBAB07",
"S. c #D9B711",
"D. c #E4AA04",
"F. c #EDB716",
"G. c #D3B134",
"H. c #EAB334",
"J. c #DD8E24",
"K. c #F7C806",
"L. c #FAD205",
"P. c #F5D206",
"I. c #FACC18",
"U. c #F9D417",
"Y. c #E7D602",
"T. c #DFCD21",
"R. c #FBCA28",
"E. c #FCD729",
"W. c #FCDA38",
"Q. c #EBD931",
"!. c #FAE436",
"~. c #F4E225",
"^. c #8C817D",
"/. c #B58D59",
"(. c #CE9447",
"). c #E8BD53",
"_. c #F8A95E",
"`. c #D5B774",
"'. c #E2B67A",
"]. c #CB9A62",
"[. c #F0CD52",
"{. c #FDE947",
"}. c #FAE355",
"|. c #F6D07D",
" X c #9C7C89",
".X c #B86C82",
"XX c #A97884",
"oX c #B47187",
"OX c #CA5E81",
"+X c #C66B83",
"@X c #C67682",
"#X c #D77284",
"$X c #D96788",
"%X c #E27B96",
"&X c #978288",
"*X c #9E8B91",
"=X c #B1979A",
"-X c #AA8A8C",
";X c #B99BA5",
":X c #B6ACAA",
">X c #C79190",
",X c #CCAE8F",
"<X c #C895A2",
"1X c #C5A6A7",
"2X c #CBB9AA",
"3X c #D6B7BB",
"4X c #CDAAB4",
"5X c #F0CC8E",
"6X c #C7C1BC",
"7X c #DCCBB9",
"8X c #F1D4B6",
"9X c #FAEEA2",
"0X c #DCB4C2",
"qX c #EDBCCB",
"wX c #C8C7C9",
"eX c #D3C6C7",
"rX c #D5D3D2",
"tX c #DADADA",
"yX c #D6CFD0",
"uX c #ECC6D1",
"iX c #E8D8DA",
"pX c #F0DECA",
"aX c #DBE0DA",
"sX c #E6E3DF",
"dX c #FBEBD9",
"fX c #FFF3D4",
"gX c #EBDBE2",
"hX c #DFE9E1",
"jX c #E2EBE5",
"kX c #EAEBEB",
"lX c #E5E3E5",
"zX c #F8E7E9",
"xX c #E9F4ED",
"cX c #FBFDEE",
"vX c #FAF7E9",
"bX c #E7EDF5",
"nX c #FAEFF4",
"mX c #F3EFF0",
"MX c #EEFAF5",
"NX c #EDF9F7",
"BX c #F4F5F4",
"VX c #FBF4F6",
"CX c #F4FCF4",
"ZX c #FBFCF5",
"AX c #F6F6F9",
"SX c #FDF5FB",
"DX c #F5FCFB",
"FX c #FFFFFF",
/* pixels */
"FXFXFXFXFXFXFXFXFXFXFXFXFXFXFXFXFXFXFXFXFXFXFXFXFXFXFXFXFXFXFXFXFXFXFXFXFXFXFXFXFXFXFXFXFXFXFXFXFXFXFXFXFXFXFXFXFXFXFXFXFXFXFXFX",
"FXFXFXFXFXFXFXFXFXFXFXFXFXFXFXFXFXFXFXFXFXFXFXFXFXFXFXFXFXFXFXFXFXFXFXFXFXFXFXFXFXFXFXFXFXFXFXFXFXFXFXFXFXFXFXFXFXFXFXFXFXFXFXFX",
"FXFXFXFXFXFXFXFXFXFXFXFXFXFXFXFXFXFXFXFXFXFXFXFXFXFXFXFXFXFXFXFXFXFXFXFXFXFXFXFXFXFXFXFXFXFXFXFXFXFXFXFXFXFXFXFXFXFXFXFXFXFXFXFX",
"FXFXFXFXFXFXFXFXFXFXFXFXFXFXFXFXFXFXFXFXFXFXFXFXFXFXFXFXFXFXFXFXFXFXFXFXFXFXFXFXFXFXFXFXFXFXFXFXFXFXFXFXFXFXFXFXFXFXFXFXFXFXFXFX",
"FXFXFXFXFXFXFXFXFXFXFXFXFXFXFXFXFXFXFXFXFXFXFXFXFXFXFXFXFXFXFXFXFXFXFXFXFXFXFXFXFXFXFXFXFXFXFXFXFXFXFXFXFXFXFXFXFXFXFXFXFXFXFXFX",
"FXFXFXFXFXFXFXFXFXFXFXFXFXFXFXFXFXFXFXFXFXFXFXFXFXFXFXFXFXFXFXFXFXFXFXFXFXFXFXFXFXFXFXFXFXFXFXFXFXFXFXFXFXFXFXFXFXFXFXFXFXFXFXFX",
"FXFXFXFXFXFXFXFXFXFXFXFXFXFXFXFXFXFXFXFXFXFXFXFXFXFXFXFXFXFXFXFXFXFXFXFXFXFXFXFXFXFXFXFXFXFXFXFXFXFXFXFXFXFXFXFXFXFXFXFXFXFXFXFX",
"FXFXFXFXFXFXFXFXFXFXFXFXFXFXFXFXFXFXFXFXFXFXFXFXFXFXFXFXFXFXFXFXFXFXFXFXFXFXFXFXFXFXFXFXFXFXFXFXFXFXFXFXFXFXFXFXFXFXFXFXFXFXFXFX",
"FXFXFXFXFXFXFXFXFXFXFXFXFXFXFXFXFXFXFXFXFXFXFXFXFXFXFXFXFXFXFXFXFXFXFXFXFXFXFXFXFXFXFXFXFXFXFXFXFXFXFXFXFXFXFXFXFXFXFXFXFXFXFXFX",
"FXFXFXFXFXFXFXFXFXFXFXFXFXFXFXFXFXFXFXFXFXFXFXFXFXFXFXFXFXFXFXFXFXFXFXFXFXFXFXFXFXFXFXFXFXFXFXFXFXFXFXFXFXFXFXFXFXFXFXFXFXFXFXFX",
"FXFXFXFXFXFXFXFXFXFXFXFXFXFXFXFXFXFXFXFXFXFXFXFXFXFXFXFXFXFXFXFXFXFXFXFXFXFXFXFXFXFXFXFXFXFXFXFXFXFXFXFXFXFXFXFXFXFXFXFXFXFXFXFX",
"FXFXFXFXFXFXFXFXFXFXFXFXFXFXFXFXFXFXFXFXFXFXFXFXFXFXFXFXFXFXFXFXFXFXFXFXFXFXFXFXFXFXFXFXFXFXFXFXFXFXFXFXFXFXFXFXFXFXFXFXFXFXFXFX",
"FXFXFXFXFXFXFXFXFXFXFXFXFXFXFXFXFXFXFXFXFXFXFXFXFXFXFXFXFXFXFXFXFXFXFXFXFXFXFXFXFXFXFXFXFXFXFXFXFXFXFXFXFXFXFXFXFXFXFXFXFXFXFXFX",
"FXFXFXFXFXFXFXFXFXFXFXFXFXFXFXFXFXFXFXFXFXFXFXFXFXFXFXFXFXFXFXFXFXFXFXFXFXFXFXFXFXFXFXFXFXFXFXFXFXFXFXFXFXFXFXFXFXFXFXFXFXFXFXFX",
"FXFXFXFXFXFXFXFXFXFXFXFXFXFXFXFXFXFXFXFXFXFXFXFXFXFXFXFXFXFXFXFXFXFXFXFXFXFXFXFXFXFXFXFXFXFXFXFXFXFXFXFXFXFXFXFXFXFXFXFXFXFXFXFX",
"FXFXFXFXFXFXFXFXFXFXFXFXFXFXFXFXFXFXFXFXFXFXFXFXFXFXFXFXFXFXFXFXFXFXFXFXFXFXFXFXFXFXFXFXFXFXFXFXFXFXFXFXFXFXFXFXFXFXFXFXFXFXFXFX",
"FXFXFXFXFXFXFXFXFXFXDXFXFXSXFXDXFXZXDXCXZXBXZXFXDXFXFXcXZXFXFXFXZXFXFXFXFXDXcXFXDXFXFXFXDXFXSXFXFXFXFXFXFXFXFXFXFXFXFXFXFXFXFXFX",
"FXFXFXFXFXFXFXFXSXFXZXZXFXFXFXZXvXcXnXdXvXSXFXBXCXFXFXFXFXFXFXZXFXFXZXvXCXDXFXFXSXFXFXFXFXFXAXFXFXFXFXFXFXFXFXFXFXFXFXFXFXFXFXFX",
"FXFXFXFXFXFXFXFXFXFXZXFXFXDXFXZXdX5X[.F.G.5XpXFXFXZXFXFXFXFXCXZXCXDXFXcXcXFXFXSXFXFXFXSXFXFXFXFXFXFXFXFXFXFXFXFXFXFXFXFXFXFXFXFX",
"FXFXFXFXFXFXFXFXDXBXFXFXNXDXFXzX[.S.I.P.K.S.G.8XFXDXCXSXSXZXMXZXDXcXfX8XdXSXFXCXSXFXFXFXFXFXFXFXFXFXFXFXFXFXFXFXFXFXFXFXFXFXFXFX",
"FXFXFXFXFXFXFXFXNXFXFXZXAXFXdX0XK.K.I.R.K.K.F.).zXDXCXSXFXDXAXSXSX9X[.}.|.8XuXFXDXDXDXDXFXFXSXFXFXFXFXFXFXFXFXFXFXFXFXFXFXFXFXFX",
"FXFXFXFXFXFXFXZXFXFXBXVXSXiX<X>XF.K.I.L.K.U.F.H.8XAXcXZXVXMXFXdX5X[.T.{.W.).>XqXFXFXDXDXFXFXSXFXFXFXFXFXFXFXFXFXFXFXFXFXFXFXFXFX",
"FXFXFXFXFXFXFXFXFXBXBXSXzX<Xf.>XH.I.P.P.P.U.L.F.'.AXCXSXSXCXVX|.F.E.{.}.W.).V.+XuXzXFXNXBXFXFXFXFXFXFXFXFXFXFXFXFXFXFXFXFXFXFXFX",
"FXFXFXFXFXFXFXAXSXNXDXSX4X.XN.>X,XI.P.L.R.U.P.D.[.FXDXFXFXCXdXG.{.~.Q.W.W.l.t.B.f.0XFXDXDXFXFXFXFXFXFXFXFXFXFXFXFXFXFXFXFXFXFXFX",
"DXFXFXFXFXBXFXSXFXxXDXlX.XOXt.N.V._.R.L.P.U.R.A.'.SXbXrXwXrX`.H.U.W.!.W.[.V.t.9.@XXX3XFXFXDXDXFXSXFXFXSXFXFXAXFXFXFXFXFXFXFXFXFX",
"ZXAXFXFXDXDXAXZXSXFXAXuX+X0.....+.~ H.{.!.Q.Q.S./.V V m 0 , / T.E.{.~.L.F.~ M..X.X.X7.;XnXFXFXAXFXFXFXAXFXFXFXFXFXFXFXFXFXFXFXFX",
"FXFXFXFXNXDXNXSXSXAXgX<X@.H G 2 ..Z A Q ( J.(.(.; * j y e & / U.R.U.Y.L.F.Q 2.t.9.-.q.oX=XwXFXSXFXCXFXFXFXFXFXAXFXFXFXFXFXFXFXFX",
"SXVXFXFXFXBXFXnX0XXXu.8._ 2 4 % O @ O = = @ = % 8 3 > > # o k P.K.L.K.J.( S J ' ,.r.] :.i. XeXFXZXBXDXFXFXFXFXFXFXFXFXFXFXFXFXFX",
"FXFXFXFXFXFXzX;X7.f.3.,.{ 4 % & X & , 1 X $ < o 8 9 X . .   o C.A.D.Z.D A Z Z J { { ] }  X Xp.lXFXFXDXFXDXFXFXFXFXFXFXFXFXFXFXFX",
"DXFXFXAXSXSX*X, d L p ' 7 % - Y Y | ` H F F P K o.t.t.t.f.u.3.k.(.( ~ : + + + % % 5 ] 7.z s. X=XSXFXZXBXFXFXFXFXFXFXFXFXFXFXFXFX",
"DXFXFXFXFXFX:XV 4XXXc < < j 3.4.#.@.6 6 { <.g.h.j.v.OXb.B.e.0.%.r.M.x.] r O O @ @ % f z i i.XXoXeXSXFXBXFXFXFXSXFXFXFXFXFXFXFXFX",
"FXFXZXDXDXxXFXSXCXFXSXrXiX<X5.E 4 3 K { 0.v.v.%.>.N.M.j.#.$.@.2.&.x.e.8.OX-.} * X $ 2 } 6.7.7.f.*XgXFXAXZXCXFXFXFXFXFXFXFXFXFXFX",
"FXFXFXFXFXFXFXDXVXBXDXSXuXq.} < e ! r.N.n.$Xb.z.b.n.1.O.2.#.#.#.o.2.` _ e.e.0.x.>.) 5 r d [ 8.N.^.3XZXZXSXFXAXZXFXFXFXFXFXFXFXFX",
"FXFXFXFXFXFXZXAXZXFXDXVX].! + & y d.M.V.B.%X$X#Xb.z.2.1.g.#. . .@.<.{ | 0.,.| 2.0.e.r.,.] d } q.d.^.0XFXFXAXVXFXFXDXFXFXFXFXFXFX",
"FXFXFXFXFXFXZXFXZXbXFX8XW ^ = X & j r.P X.B.N.N.x.z.x.c.c.+.E  .o.>.,.3.r.,.@.1.....@.8.8.-.| | 9.-.a.kXFXFXFXBXSXFXFXFXFXFXFXFX",
"FXFXFXFXFXFXFXFXCXDXFXeXk W l .   X y U E b.g.O...>.c.m.x.2.O.E U @.,.3.3.3.w.1.O.o.@.@.9.9.8.8.{ s b tXFXBXCXFXFXDXFXFXFXFXFXFX",
"FXFXFXFXFXFXFXFXZXSXFXFX2Xl # & o . O { &.&.+.J ` ` 2.w.g.2.o.H U U P *.T =.2.o.O.O.2.#.$.8.8.8.9.c b gXFXFXFXnXSXZXZXFXFXFXFXFX",
"FXFXFXZXFXFXFXFXFXvXDXbXFXVX-Xg q & @ % 4.O.x.g.w.2.2.w.2.o.U H ` L 6 Y y Y I U I ` ..@.0.e.e.8.-.;.>XAXAXBXFXVXDXFXFXFXFXFXFXFX",
"FXFXFXFXFXFXFXFXFXFXFXDXAXFXFXiX3X1X*XN j e.h.c.N.x.w.>.@.L G U | _ t { Y =.Y K I _ _ H ` ..0.e.e.| .XqXVXFXDXBXZXFXFXFXFXFXFXFX",
"FXFXFXFXFXFXFXFXFXFXFXZXcXBXCXDXZXjXjX:Xu.,.c.h.4.<.o._ _ I K L Y ] Y =.=.=.Y 6 Y K G G G U U L | 9.9.:.3XDXBXFXFXAXFXFXFXFXFXFX",
"FXFXFXFXFXFXFXFXFXFXFXFXZXZXAXAXjXkXtX:X&Xy.3.w.5.{ { ) ) 5 5 r w 3 s c *.[ f p { F 6 7 7 4 2 4 7 ' 8.:.*.f.,X,XeXZXFXFXFXCXFXSX",
"FXFXFXFXFXFXFXFXFXFXFXFXFXFXZXBXBXmXgXyXwX:X-X5.h.=.[ T [ z a 3 r w u u g g w 4 K p K L G 6 2 2 $ < x c j Y ! !   p.SXBXFXFXZXFX",
"FXFXFXFXFXFXFXFXFXFXFXFXFXFXAXAXCXVXBXkXhXaX6X1XV.3.*.*.*.g g [ a u u 9 e u w e 5 5 6 G 6 4 4 3 2 2 4 s s w * #   C FXBXFXFXFXSX",
"FXFXFXFXFXFXFXFXFXFXFXFXFXFXFXFXCXSXSXBXjXjXsXsXuX-X;.*.*.*.n m z j a e w u u g P p p p p t t f w e w 9 9 9 v ;.:XlXZXZXFXFXFXFX",
"FXFXFXFXFXFXFXFXFXFXFXFXFXFXFXFXFXFXFXSXFXAXNXkXxXzX3X;.c *.-.c [ s z h h j j h a r y f d r u j z x :.a.4XiXxXMXSXFXFXFXCXBXFXZX",
"FXFXFXFXFXFXFXFXFXFXFXFXFXFXFXFXDXFXDXFXFXFXFXAXDXBXZXdX1X;.c -.n x h x z h j n *.x j x x n ;.a.:XtXxXZXFXFXSXFXZXSXFXAXFXFXSXFX",
"FXFXFXFXFXFXFXFXFXFXFXFXFXFXFXFXFXFXFXFXFXFXFXFXFXFXFXDXFXiX1Xy.;.b 0 q 9 9 9 q q q 0 N p.=XeXvXBXFXFXDXSXDXDXFXFXBXFXZXSXFXFXFX",
"FXFXFXFXFXFXFXFXFXFXFXFXFXFXFXFXFXFXFXDXFXSXFXFXFXFXFXBXFXFXDXjXeX;Xp.b b m m m N B p.*X:XeXsXsXnXFXFXDXFXFXFXDXFXFXFXFXFXDXFXFX",
"FXFXFXFXFXFXFXFXFXFXFXFXFXFXFXFXFXFXFXFXFXFXFXFXFXFXFXFXFXFXFXFXFXFXBXlXtXwXwXwXyXrXaXlXBXAXZXFXFXFXFXFXFXFXFXFXFXFXFXFXFXFXFXFX",
"FXFXFXFXFXFXFXFXFXFXFXFXFXFXFXFXFXFXFXFXFXFXFXFXFXFXFXFXFXFXFXFXDXFXFXFXFXFXZXFXAXFXFXFXFXFXFXFXFXFXFXFXFXFXFXFXFXFXFXFXFXFXFXFX",
"FXFXFXFXFXFXFXFXFXFXFXFXFXFXFXFXFXFXFXFXFXFXFXFXFXFXFXFXFXFXFXFXFXFXFXFXFXFXFXFXFXFXFXFXFXFXFXFXFXFXFXFXFXFXFXFXFXFXFXFXFXFXFXFX",
"FXFXFXFXFXFXFXFXFXFXFXFXFXFXFXFXFXFXFXFXFXFXFXFXFXFXFXFXFXFXFXFXFXFXFXFXFXZXFXZXFXFXFXFXFXFXFXFXFXFXFXFXFXFXFXFXFXFXFXFXFXFXFXFX",
"FXFXFXFXFXFXFXFXFXFXFXFXFXFXFXFXFXFXFXFXFXFXFXFXFXFXFXFXFXFXFXFXFXFXFXFXFXFXFXFXFXFXFXFXFXFXFXFXFXFXFXFXFXFXFXFXFXFXFXFXFXFXFXFX",
"FXFXFXFXFXFXFXFXFXFXFXFXFXFXFXFXFXFXFXFXFXFXFXFXFXFXFXFXFXFXFXFXFXFXFXFXSXFXFXFXFXFXFXFXFXFXFXZXFXFXFXFXFXFXFXFXFXFXFXFXFXFXFXFX",
"FXFXFXFXFXFXFXFXFXFXFXFXFXFXFXFXFXFXFXFXFXFXFXFXFXFXFXFXFXFXFXFXFXFXFXFXFXFXFXFXFXFXFXFXFXFXFXFXFXFXFXFXFXFXFXFXFXFXFXFXFXFXFXFX",
"FXFXFXFXFXFXFXFXFXFXFXFXFXFXFXFXFXFXFXFXFXFXFXFXFXFXFXFXFXFXFXFXFXFXFXFXFXDXFXFXFXFXFXFXFXFXFXFXFXFXFXFXFXFXFXFXFXFXFXFXFXFXFXFX",
"FXFXFXFXFXFXFXFXFXFXFXFXFXFXFXFXFXFXFXFXFXFXFXFXFXFXFXFXFXFXFXFXFXFXFXFXFXFXFXFXFXFXFXFXFXFXFXFXFXFXFXFXFXFXFXFXFXFXFXFXFXFXFXFX",
"FXFXFXFXFXFXFXFXFXFXFXFXFXFXFXFXFXFXFXFXFXFXFXFXFXFXFXFXFXFXFXFXFXFXFXFXFXFXFXFXFXFXFXFXFXFXFXFXFXFXFXFXFXFXFXFXFXFXFXFXFXFXFXFX",
"FXFXFXFXFXFXFXFXFXFXFXFXFXFXFXFXFXFXFXFXFXFXFXFXFXFXFXFXFXFXFXFXFXFXFXFXFXFXFXFXFXFXFXFXFXFXFXFXFXFXFXFXFXFXFXFXFXFXFXFXFXFXFXFX",
"FXFXFXFXFXFXFXFXFXFXFXFXFXFXFXFXFXFXFXFXFXFXFXFXFXFXFXFXFXFXFXFXFXFXFXFXFXFXFXFXFXFXFXFXFXFXFXFXFXFXFXFXFXFXFXFXFXFXFXFXFXFXFXFX",
"FXFXFXFXFXFXFXFXFXFXFXFXFXFXFXFXFXFXFXFXFXFXFXFXFXFXFXFXFXFXFXFXFXFXFXFXFXFXFXFXFXFXFXFXFXFXFXFXFXFXFXFXFXFXFXFXFXFXFXFXFXFXFXFX",
"FXFXFXFXFXFXFXFXFXFXFXFXFXFXFXFXFXFXFXFXFXFXFXFXFXFXFXFXFXFXFXFXFXFXFXFXFXFXFXFXFXFXFXFXFXFXFXFXFXFXFXFXFXFXFXFXFXFXFXFXFXFXFXFX",
"FXFXFXFXFXFXFXFXFXFXFXFXFXFXFXFXFXFXFXFXFXFXFXFXFXFXFXFXFXFXFXFXFXFXFXFXFXFXFXFXFXFXFXFXFXFXFXFXFXFXFXFXFXFXFXFXFXFXFXFXFXFXFXFX",
"FXFXFXFXFXFXFXFXFXFXFXFXFXFXFXFXFXFXFXFXFXFXFXFXFXFXFXFXFXFXFXFXFXFXFXFXFXFXFXFXFXFXFXFXFXFXFXFXFXFXFXFXFXFXFXFXFXFXFXFXFXFXFXFX"
};
