/* XPM */
static char *c275589111dc4683efa4d61caa51d250b9ZR3h6jheJRowRG[] = {
/* columns rows colors chars-per-pixel */
"64 64 245 2 ",
"   c #1D5900",
".  c #1A4E00",
"X  c #235C04",
"o  c #296707",
"O  c #346B0D",
"+  c #356808",
"@  c #387606",
"#  c #3C6E15",
"$  c #3B6F1C",
"%  c #3B7318",
"&  c #437B0E",
"*  c #457A1A",
"=  c #447A16",
"-  c #517219",
";  c #457B24",
":  c #597D33",
">  c #527A30",
",  c #727732",
"<  c #857D28",
"1  c #B77D3D",
"2  c #D85D17",
"3  c #F7760A",
"4  c #FA760C",
"5  c #FB7B0C",
"6  c #F87B0A",
"7  c #F67D13",
"8  c #FB7B14",
"9  c #FB7D1B",
"0  c #F87717",
"q  c #EB641A",
"w  c #CF5F20",
"e  c #D56B2A",
"r  c #ED6826",
"t  c #F36A2B",
"y  c #F57D24",
"u  c #FB7C24",
"i  c #FA762C",
"p  c #F77C2A",
"a  c #FB7E2B",
"s  c #F77529",
"d  c #EB7837",
"f  c #F67A33",
"g  c #FB7C33",
"h  c #F67836",
"j  c #EE722F",
"k  c #CA785C",
"l  c #D77744",
"z  c #EA7C47",
"x  c #C97B62",
"c  c #4A841B",
"v  c #4F8C1C",
"b  c #4D8428",
"n  c #558A28",
"m  c #5A9329",
"M  c #568D33",
"N  c #5A8C32",
"B  c #5B8C3A",
"V  c #59873B",
"C  c #599333",
"Z  c #5B913B",
"A  c #4F8432",
"S  c #64993C",
"D  c #6D9034",
"F  c #5E8A45",
"G  c #579542",
"H  c #668F4A",
"J  c #639344",
"K  c #699748",
"L  c #6D9D55",
"P  c #729758",
"I  c #77974E",
"U  c #6CA24D",
"Y  c #75A656",
"T  c #7EA344",
"R  c #7BA864",
"E  c #848539",
"W  c #FB840C",
"Q  c #F9880B",
"!  c #F9970E",
"~  c #FB8413",
"^  c #FA8A12",
"/  c #FB831B",
"(  c #F58E1B",
")  c #FB8B1B",
"_  c #F6841B",
"`  c #F69915",
"'  c #FA9B12",
"]  c #F5931C",
"[  c #FA921C",
"{  c #F59616",
"}  c #EE9C1C",
"|  c #F5A41C",
" . c #F9A618",
".. c #CF8035",
"X. c #FB8224",
"o. c #FB8C23",
"O. c #F6832A",
"+. c #FC832B",
"@. c #FC8B2B",
"#. c #F78926",
"$. c #F59322",
"%. c #FB9424",
"&. c #F49A25",
"*. c #FA9B24",
"=. c #FB932D",
"-. c #F89A2C",
";. c #FB8332",
":. c #FC8D33",
">. c #F7863A",
",. c #FC9233",
"<. c #FB9D33",
"1. c #F49439",
"2. c #FB9B3C",
"3. c #F89738",
"4. c #EA902C",
"5. c #FEA221",
"6. c #F6A22C",
"7. c #FAA42C",
"8. c #F7A927",
"9. c #F6A334",
"0. c #FBA432",
"q. c #FBAB36",
"w. c #F5A33C",
"e. c #FAA53C",
"r. c #FAAB3B",
"t. c #F5AC39",
"y. c #F7B339",
"u. c #EFA72E",
"i. c #919154",
"p. c #A7985F",
"a. c #93B35E",
"s. c #8B9D63",
"d. c #87AB66",
"f. c #89AB71",
"g. c #92B26F",
"h. c #ABAA71",
"j. c #C89759",
"k. c #F98946",
"l. c #FC9342",
"z. c #FC9A43",
"x. c #FA934C",
"c. c #FD9B4A",
"v. c #F59C45",
"b. c #FC9553",
"n. c #FC9A53",
"m. c #FA985B",
"M. c #F5925A",
"N. c #FBA443",
"B. c #F5AB45",
"V. c #FAAA44",
"C. c #F5A94D",
"Z. c #FAAD4A",
"A. c #F7A447",
"S. c #F5B249",
"D. c #ECA85C",
"F. c #F4AB54",
"G. c #F3AC5B",
"H. c #F9A756",
"J. c #EEB45D",
"K. c #E7B15B",
"L. c #F5B253",
"P. c #F5B758",
"I. c #EBB24C",
"U. c #CD8363",
"Y. c #D58864",
"T. c #D69077",
"R. c #F49C69",
"E. c #DAAC69",
"W. c #D6B471",
"Q. c #F3A365",
"!. c #F8A968",
"~. c #EEB868",
"^. c #F4B364",
"/. c #F5B26D",
"(. c #F4BA6A",
"). c #F9B566",
"_. c #F6AE7A",
"`. c #FDA670",
"'. c #EEB579",
"]. c #F4B573",
"[. c #F5BC73",
"{. c #F5B97B",
"}. c #EEAD6F",
"|. c #A4C97B",
" X c #F3C36E",
".X c #EDC77A",
"XX c #F2C173",
"oX c #F2C57E",
"OX c #A9BE95",
"+X c #E19D8A",
"@X c #C8B980",
"#X c #EBBC8B",
"$X c #F4BB84",
"%X c #F2B78C",
"&X c #EEB893",
"*X c #F9BC93",
"=X c #E4A797",
"-X c #ECBAAD",
";X c #AAC797",
":X c #B5CB9D",
">X c #B8C596",
",X c #A9C388",
"<X c #B4C8A8",
"1X c #EDC384",
"2X c #F2C589",
"3X c #F4C493",
"4X c #FAC394",
"5X c #F2C69A",
"6X c #F2CC9B",
"7X c #EFCE99",
"8X c #CDDCB9",
"9X c #C6D7B8",
"0X c #C9D3B6",
"qX c #EDC7A8",
"wX c #F6CCA3",
"eX c #F5C7A5",
"rX c #F3CFB3",
"tX c #F7D8B9",
"yX c #F0D1B3",
"uX c #DAE0BA",
"iX c #CFDB93",
"pX c #D8DDC6",
"aX c #EECBC4",
"sX c #F6D9C6",
"dX c #E9DAD7",
"fX c #D5E5C7",
"gX c #DEEDD8",
"hX c #F9E4C8",
"jX c #FAEBD9",
"kX c #E7F3DC",
"lX c #F9F4DA",
"zX c #E5E8D1",
"xX c #F7EBE6",
"cX c #FBF2E4",
"vX c #F5F5EA",
"bX c #FBF4EB",
"nX c #FBFAED",
"mX c #F6F8E6",
"MX c #EFEFF1",
"NX c #FAF5F4",
"BX c #FDFCF5",
"VX c #F7FEFC",
"CX c #FFFFFF",
"ZX c #F6F7F4",
"AX c #E9F3E3",
/* pixels */
"CXCXCXCXCXCXCXCXCXCXCXCXCXCXCXCXCXCXCXCXCXCXCXCXCXCXCXCXCXCXCXCXCXCXCXCXCXCXCXCXCXCXCXCXCXCXCXCXCXCXCXCXCXCXCXCXCXCXCXCXCXCXCXCX",
"CXCXCXCXCXCXCXCXCXCXCXCXCXCXCXCXCXCXCXCXCXCXCXCXCXCXCXCXCXCXCXCXCXCXCXCXCXCXCXCXCXCXCXCXCXCXCXCXCXCXCXCXCXCXCXCXCXCXCXCXCXCXCXCX",
"CXCXCXCXCXCXCXCXCXCXCXCXCXCXCXCXCXCXCXCXCXCXCXCXCXCXCXCXCXCXCXCXCXCXCXCXCXCXCXCXCXCXCXCXCXCXCXCXCXCXCXCXCXCXCXCXCXCXCXCXCXCXCXCX",
"CXCXCXCXCXCXCXCXCXCXCXCXCXCXCXCXCXCXCXCXCXCXCXCXCXCXCXCXCXCXCXCXCXCXCXCXCXCXCXCXCXCXCXCXCXCXCXCXCXCXCXCXCXCXCXCXCXCXCXCXCXCXCXCX",
"CXCXCXCXCXCXCXCXCXCXCXCXCXCXCXCXCXCXCXCXCXCXCXCXCXCXCXCXCXCXCXCXCXCXCXCXCXCXCXCXCXCXCXCXCXCXCXCXCXCXCXCXCXCXCXCXCXCXCXCXCXCXCXCX",
"CXCXCXCXCXCXCXCXCXCXCXCXCXCXCXCXCXCXCXCXCXCXCXCXCXCXCXCXCXCXCXCXCXCXCXCXCXCXCXCXCXCXCXCXCXCXCXCXCXCXCXCXCXCXCXCXCXCXCXCXCXCXCXCX",
"CXCXCXCXCXCXCXCXCXCXCXCXCXCXCXCXCXCXCXCXCXCXCXCXCXCXCXCXCXCXCXCXCXCXCXCXCXCXCXCXCXCXCXCXCXCXCXCXCXCXCXCXCXCXCXCXCXCXCXCXCXCXCXCX",
"CXCXCXCXCXCXCXCXCXCXCXCXCXCXCXCXCXCXCXCXCXCXCXCXCXCXCXCXCXCXCXCXCXCXCXCXCXCXCXCXCXCXCXCXCXCXCXCXCXCXCXCXCXCXCXCXCXCXCXCXCXCXCXCX",
"CXCXCXCXCXCXCXCXCXCXCXCXCXCXCXCXCXCXCXCXCXCXCXCXCXCXCXCXCXCXCXCXCXCXCXCXCXCXCXCXCXCXCXCXCXCXCXCXCXCXCXCXCXCXCXCXCXCXCXCXCXCXCXCX",
"CXCXCXCXCXCXCXCXCXCXCXCXCXCXCXCXCXCXCXCXCXCXCXCXCXCXCXCXBXBXCXCXCXCXCXCXCXCXCXCXCXCXCXCXCXCXCXCXCXCXCXCXCXCXCXCXCXCXCXCXCXCXCXCX",
"CXCXCXCXCXCXCXCXCXCXCXCXCXCXCXCXCXCXCXCXCXCXCXCXCXCXCXCXCXCXCXCXCXCXCXCXCXCXCXCXCXCXCXCXCXCXCXCXCXCXCXCXCXCXCXCXCXCXCXCXCXCXCXCX",
"CXCXCXCXCXCXCXCXCXCXCXCXCXCXCXCXCXCXCXCXCXCXCXCXCXCXCXBXCXCXvXVXCXCXCXCXCXCXCXCXCXCXCXCXCXCXCXCXCXCXCXCXCXCXCXCXCXCXCXCXCXCXCXCX",
"CXCXCXCXCXCXCXCXCXCXCXCXCXCXCXCXCXCXCXCXCXCXCXCXCXCXCXBXCXvXuXvXCXCXCXCXCXCXCXCXCXCXCXCXCXCXCXCXCXCXCXCXCXCXCXCXCXCXCXCXCXCXCXCX",
"CXCXCXCXCXCXCXCXCXCXCXCXCXCXCXCXCXCXCXCXCXCXCXCXCXCXCXBXCXzXs.mXCXCXCXCXCXCXCXCXCXCXCXCXCXCXCXCXCXCXCXCXCXCXCXCXCXCXCXCXCXCXCXCX",
"CXCXCXCXCXCXCXCXCXCXCXCXCXCXCXCXCXCXCXCXCXCXCXCXCXCXCXVXCX8XS mXCXBXVXBXBXCXVXBXCXCXCXCXCXCXCXCXCXCXCXCXCXCXCXCXCXCXCXCXCXCXCXCX",
"CXCXCXCXCXCXCXCXCXCXCXCXCXCXCXCXCXCXCXCXCXCXCXCXCXCXCXCXCX:XS mXCXCXCXCXCXCXCXCXCXCXCXCXCXCXCXCXCXCXCXCXCXCXCXCXCXCXCXCXCXCXCXCX",
"CXCXCXCXCXCXCXCXCXCXCXCXCXCXCXCXCXCXCXCXCXCXCXCXCXCXCXCXmXd.i.kXvX0X;X:X;X:X<X<X9XpXgXZXCXCXCXBXCXCXCXCXCXCXCXCXCXCXCXCXCXCXCXCX",
"CXCXCXCXCXCXCXCXCXCXCXCXCXCXCXCXCXCXCXCXCXCXCXBXBXBXBXBXzX, i.iXa.& & & = > A A H H P f.OX8XAXVXCXBXCXCXCXCXCXCXCXCXCXCXCXCXCXCX",
"CXCXCXCXCXCXCXCXCXCXCXCXCXCXCXCXCXCXCXCXCXCXCXBXCXVXVXVXVXi.i.CX;Xb n n N N B K L R f.K B B K OXfXCXVXVXCXCXCXCXCXCXCXCXCXCXCXCX",
"CXCXCXCXCXCXCXCXCXCXCXCXCXCXCXCXCXCXCXCXCXCXCXCXCXVXnXcXlXp., sXhXh.V = * n N G F P L A B N C c N ,XBXCXVXCXCXCXCXCXCXCXCXCXCXCX",
"CXCXCXCXCXCXCXCXCXCXCXCXCXCXCXCXCXBXVXCXVXnXsXtXwX3X$X#X1XE.p.~.I.[.W.G O O * b B I K B K G M C m & U gXCXCXBXBXCXCXCXCXCXCXCXCX",
"CXCXCXCXCXCXCXCXCXCXCXCXCXCXCXCXCXVXCXjXtX1X!.J.G.D._.4X2X).Z./.}.!.Q.E.P O + @ $ K G Y R J S K n c @ n 8XCXBXCXCXCXCXCXCXCXCXCX",
"CXCXCXCXCXCXCXCXCXCXCXCXCXCXCXCXVXBXtX5X{.H.[.^.L.H.L.G.Z.N.=.o.1.1._ 9 d i.; o O : $ % M U Y L U S m v v :XCXBXCXCXCXCXCXCXCXCX",
"CXCXCXCXCXCXCXCXCXCXCXCXCXCXCXBXcX6X{.G.B.B.L.B.9.&.&.&.$.%.~ W 7 / / 0 4 0 1 : o + = O # = c K Y M M n c * >XCXBXCXCXCXCXCXCXCX",
"CXCXCXCXCXCXCXCXCXCXCXCXVXCXCXvX6X].H.q.8. . . .! %.*.` ! Q Q W _ O.a u u u 4 e < * X O # + # o b J N n C S m 8XCXZXCXCXCXCXCXCX",
"CXCXCXCXCXCXCXCXCXCXCXCXCXVXnXqX^.B.0.'  . . .8.` ! ' ' ! ^ Q W / +.+.9 u u 0 s t e D X X X o O @ % b J N N C m 8XCXBXCXCXCXCXCX",
"CXCXCXCXCXCXCXCXCXCXCXBXBXCXtXG.9.&.|  .8.8.| 8.6.' %.' ! W W 5 0 p a X.a a p g r q k.Y.E - + X   o o # Z J C N D fXCXBXCXCXCXCX",
"CXCXCXCXCXCXCXCXCXCXCXCXCXlX$XH.5.7.r.5. .P.P.t.^.F.H.{ [ Q W 5 9 u a u g g p O.i q z m.`.Q.W.OXf.A + .   b K B M K gXCXBXCXCXCX",
"CXCXCXCXCXCXCXCXCXCXCXBXVX3XK.e.| 6.y.I.).J.2XI.} 1.B.&.] _ 6 W 8 a >.g g +.g s g t r k.b.`.!.jXCXnX8Xg.> . X A Y M d.CXCXBXCXCX",
"CXCXCXCXCXCXCXCXCXCXCXCXvX].B.` S.L.P.2X XI.(.*X~.u.t.3.=.@.7 W 8 u k.g g p g p h h t d m.m.n.#XZXVXCXCXAX<XF . % d.a.,XCXBXCXCX",
"CXCXCXCXCXCXCXCXCXCXCXCXsX!.5.| P.(. X[.2XwX XK.5X!.9.w.] o.~ 6 4 9 g ;.a u g p g h t h k.m.n.!.jXVXNXCXBXCXCX9XH o L |.kXCXCXCX",
"CXCXCXCXCXCXCXCXCXCXCXCX2XF.' 7.Z.$X2XXX7X7XtX(.~.F.3.J.} #.5 3 4 0 ;.a +.u f p h i i h k.m.m.D.tXCXNXCXCXCXZXCXCX0XF S g.mXCXCX",
"CXCXCXCXCXCXCXCXCXCXCXBX{.9.' q.XXXX4X XyXsX1X$XK.^.C.w.( ) 6 5 4 0 9 O.O.O.O.+.p p i j k.x.b.Q.6XVXVXCXCXCXCXVXNXCXBX:Xg.pXCXCX",
"CXCXCXCXCXCXCXCXCXCXCXNXoX*.| Z. XXX X6X.X2X$X6XB.4Xu.3.( ~ W 5 4 4 7 9 :.O.0 u X.O.p f >.x.b.Q.5XCXBXCXCXCXCXCXCXCXVXCXBXNXCXCX",
"CXCXCXCXCXCXCXCXCXCXCXNX[.<.8.Z.P.).S.3X7XoX#XXX}.9.-.9.( ^ 5 3 5 8 ~ ~ _ @./ 9 X.+.;.g >.x.b.`.*XVXCXCXCXCXCXCXCXCXBXBXCXBXCXCX",
"CXCXCXCXCXCXCXCXBXCXCXNX$XN. .8.y.L.S.y.(.[.{.J.4.&.z.] ] W 5 5 3 3 3 7 _ 7 / 8 / O.:.;.g x.x.`.*XVXBXCXCXCXCXCXCXCXCXCXBXVXCXCX",
"CXCXCXCXCXCXCXCXCXCXCXBX4XZ.q.q.y.r.q.q.r.B.A.w.$.N.$.%.%.^ W 3 5 5 4 4 8 8 ~ 4 / 9 / =.,.>.b.!.*XVXNXCXCXCXCXCXCXCXCXCXCXCXCXCX",
"CXCXCXCXCXCXCXCXCXCXCXCXeXP.V.r.t.y.y.q.r.w.B.N.%.-.] ^ ^ ~ ~ 5 5 5 8 6 8 8 8 9 ~ 9 o.@.:.l.n.!.rXCXCXCXCXCXCXCXCXCXCXCXCXCXCXCX",
"CXCXCXCXCXCXCXCXCXCXCXCXtX).Z.q.q.y.q.y.r.0.<.<.[ ] ] W ~ ~ 5 5 6 4 4 8 5 8 ~ 7 / ) ) =.3.z.c.Q.sXVXCXCXCXCXCXCXCXCXCXCXCXCXCXCX",
"CXCXCXCXCXCXCXCXCXCXCXCXjX].Z.r.q.q.q.r.t.6.-.<.^ ] ^ ~ W ~ W 5 3 3 5 5 9 8 9 7 / / o.@.,.l.H.}.jXVXCXCXCXCXCXCXCXCXCXCXCXCXCXCX",
"CXCXCXCXCXCXCXCXCXCXCXCXBX4XN.B.q.r.r.q.q.6.<.*.[ [ Q ^ ~ 5 W 4 5 4 4 8 / 8 X.8 / o.%.:.,.2.H.qXBXCXCXCXCXCXCXCXCXCXCXCXCXCXCXCX",
"CXCXCXCXCXCXCXCXCXCXCXVXVXhX^.B.V.q.q.q.0.6.*.*.[ [ ^ ) ~ W 5 5 4 8 8 / X./ 9 / ) X.=.,.,.z._.jXCXCXCXCXCXCXCXCXCXCXCXCXCXCXCXCX",
"CXCXCXCXCXCXCXCXCXCXCXVXCXBX7XV.r.e.q.q.q.7.<.[ [ ) o./ ^ ) 8 4 4 8 8 9 / X.X./ o.@.=.:.3.m.rXZXBXCXCXCXCXCXCXCXCXCXCXCXCXCXCXCX",
"CXCXCXCXCXCXCXCXCXCXCXCXBXCXjX^.N.e.0.q.q.6.-.[ ] ( ) ) ^ / 8 5 0 9 9 X.X.+./ / X.@.#.@.k.&XNXVXVXCXCXCXCXCXCXCXCXCXCXCXCXCXCXCX",
"CXCXCXCXCXCXCXCXCXCXCXCXCXCXBXhX/.e.<.9.0.7.<.%.) %.) ^ ) / 9 0 u u u a +.+.X.X.+.@.O.>.].cXCXCXCXCXCXCXCXCXCXCXCXCXCXCXCXCXCXCX",
"CXCXCXCXCXCXCXCXCXCXCXCXVXBXBXCXsXH.N.e.e.e.<.[ %.%.%.) o._ u u u u u +.+.X.X.u X.X.f '.mXVXCXCXCXCXCXCXCXCXCXCXCXCXCXCXCXCXCXCX",
"CXCXCXCXCXCXCXCXCXCXCXCXBXBXCXCXCXhX'.v.z.N.e.=.=.=.=.=.#.+.+.+.a +.g +.a X.X.X.u k.=XnXVXVXCXCXCXCXCXCXCXCXCXCXCXCXCXCXCXCXCXCX",
"CXCXCXCXCXCXCXCXCXCXCXCXCXCXCXVXCXVXbXwXQ.v.C.v.1.3.:.,.,.:.;.;.+.;.;.+.X.X.X.O.M.yXZXVXNXCXCXCXCXCXCXCXCXCXCXCXCXCXCXCXCXCXCXCX",
"CXCXCXCXCXCXCXCXCXCXCXCXCXCXCXCXCXCXCXCXlX5XR.b.b.c.2.z.c.z.l.2.2.3.,./ p d z R.sXMXMXxXNXZXVXCXCXCXCXCXCXCXCXCXCXCXCXCXCXCXCXCX",
"CXCXCXCXCXCXCXCXCXCXCXCXCXCXCXCXCXCXCXnXVXZXsX%XY.l z h d h h d j r 2 w e x +X-XaXdXxXMXNXZXBXCXCXCXCXCXCXCXCXCXCXCXCXCXCXCXCXCX",
"CXCXCXCXCXCXCXCXCXCXCXCXCXCXCXCXCXCXCXBXBXVXNXbXjXrX=XT.Y.x U.U.x k x T.=X-XqXaXaXdXxXxXNXCXVXCXCXCXCXCXCXCXCXCXCXCXCXCXCXCXCXCX",
"CXCXCXCXCXCXCXCXCXCXCXCXCXCXCXCXCXCXCXCXCXBXCXVXNXCXCXBXBXBXNXBXNXbXcXxXxXMXxXxXxXbXNXNXCXVXCXCXCXCXCXCXCXCXCXCXCXCXCXCXCXCXCXCX",
"CXCXCXCXCXCXCXCXCXCXCXCXCXCXCXCXCXCXCXCXCXCXCXCXCXCXNXCXBXNXBXVXCXCXCXVXBXCXCXBXCXCXCXCXCXCXCXCXCXCXCXCXCXCXCXCXCXCXCXCXCXCXCXCX",
"CXCXCXCXCXCXCXCXCXCXCXCXCXCXCXCXCXCXCXCXCXCXCXCXCXCXCXVXCXCXCXCXCXCXCXCXCXBXCXCXCXCXCXCXCXCXCXCXCXCXCXCXCXCXCXCXCXCXCXCXCXCXCXCX",
"CXCXCXCXCXCXCXCXCXCXCXCXCXCXCXCXCXCXCXCXCXCXCXCXCXCXCXCXCXCXCXCXCXCXCXCXCXCXCXCXCXCXCXCXCXCXCXCXCXCXCXCXCXCXCXCXCXCXCXCXCXCXCXCX",
"CXCXCXCXCXCXCXCXCXCXCXCXCXCXCXCXCXCXCXCXCXCXCXCXCXCXCXCXCXCXCXCXCXCXCXCXCXCXCXCXCXCXCXCXCXCXCXCXCXCXCXCXCXCXCXCXCXCXCXCXCXCXCXCX",
"CXCXCXCXCXCXCXCXCXCXCXCXCXCXCXCXCXCXCXCXCXCXCXCXCXCXCXCXCXCXCXCXCXCXCXCXCXCXCXCXCXCXCXCXCXCXCXCXCXCXCXCXCXCXCXCXCXCXCXCXCXCXCXCX",
"CXCXCXCXCXCXCXCXCXCXCXCXCXCXCXCXCXCXCXCXCXCXCXCXCXCXCXCXCXCXCXCXCXCXCXCXCXCXCXCXCXCXCXCXCXCXCXCXCXCXCXCXCXCXCXCXCXCXCXCXCXCXCXCX",
"CXCXCXCXCXCXCXCXCXCXCXCXCXCXCXCXCXCXCXCXCXCXCXCXCXCXCXCXCXCXCXCXCXCXCXCXCXCXCXCXCXCXCXCXCXCXCXCXCXCXCXCXCXCXCXCXCXCXCXCXCXCXCXCX",
"CXCXCXCXCXCXCXCXCXCXCXCXCXCXCXCXCXCXCXCXCXCXCXCXCXCXCXCXCXCXCXCXCXCXCXCXCXCXCXCXCXCXCXCXCXCXCXCXCXCXCXCXCXCXCXCXCXCXCXCXCXCXCXCX",
"CXCXCXCXCXCXCXCXCXCXCXCXCXCXCXCXCXCXCXCXCXCXCXCXCXCXCXCXCXCXCXCXCXCXCXCXCXCXCXCXCXCXCXCXCXCXCXCXCXCXCXCXCXCXCXCXCXCXCXCXCXCXCXCX",
"CXCXCXCXCXCXCXCXCXCXCXCXCXCXCXCXCXCXCXCXCXCXCXCXCXCXCXCXCXCXCXCXCXCXCXCXCXCXCXCXCXCXCXCXCXCXCXCXCXCXCXCXCXCXCXCXCXCXCXCXCXCXCXCX",
"CXCXCXCXCXCXCXCXCXCXCXCXCXCXCXCXCXCXCXCXCXCXCXCXCXCXCXCXCXCXCXCXCXCXCXCXCXCXCXCXCXCXCXCXCXCXCXCXCXCXCXCXCXCXCXCXCXCXCXCXCXCXCXCX",
"CXCXCXCXCXCXCXCXCXCXCXCXCXCXCXCXCXCXCXCXCXCXCXCXCXCXCXCXCXCXCXCXCXCXCXCXCXCXCXCXCXCXCXCXCXCXCXCXCXCXCXCXCXCXCXCXCXCXCXCXCXCXCXCX"
};
