/* XPM */
static char *_1509bb8b2f14677b43f71eecf3e8becvEK8UM3tjFrY4aHw[] = {
/* columns rows colors chars-per-pixel */
"64 64 222 2 ",
"   c #0F0400",
".  c #18060D",
"X  c #170516",
"o  c #1D0313",
"O  c #1C041B",
"+  c #1D0A1C",
"@  c #161200",
"#  c #22011C",
"$  c #230B1D",
"%  c #260D18",
"&  c #24180C",
"*  c #333A02",
"=  c #363010",
"-  c #283600",
";  c #1D0622",
":  c #260422",
">  c #2C0425",
",  c #230D21",
"<  c #2A0B24",
"1  c #2B0C2B",
"2  c #320E2C",
"3  c #251223",
"4  c #2A1326",
"5  c #2D132A",
"6  c #2C1A2B",
"7  c #2A1827",
"8  c #32122C",
"9  c #331B2E",
"0  c #371934",
"q  c #2C1134",
"w  c #2F212E",
"e  c #352528",
"r  c #3A3826",
"t  c #332232",
"y  c #392436",
"u  c #372A36",
"i  c #3C263A",
"p  c #3C2C3B",
"a  c #382A37",
"s  c #3E303D",
"d  c #401D3B",
"f  c #432C3C",
"g  c #43263C",
"h  c #43333E",
"j  c #473D3C",
"k  c #483E23",
"l  c #585338",
"z  c #4F5124",
"x  c #686C2C",
"c  c #3C2A41",
"v  c #3F3140",
"b  c #402E44",
"n  c #482E47",
"m  c #433243",
"M  c #493446",
"N  c #493B46",
"B  c #4B344A",
"V  c #4C3C4A",
"C  c #453A45",
"Z  c #52334E",
"A  c #553B53",
"S  c #4A3652",
"D  c #4D4248",
"F  c #53454F",
"G  c #5E5149",
"H  c #4F4150",
"J  c #554255",
"K  c #564359",
"L  c #5E4A5A",
"P  c #594856",
"I  c #5C5058",
"U  c #60455C",
"Y  c #624C5E",
"T  c #61555D",
"R  c #67585D",
"E  c #635B44",
"W  c #706F4E",
"Q  c #564661",
"!  c #644D63",
"~  c #654D66",
"^  c #6A5465",
"/  c #685767",
"(  c #70596D",
")  c #745C72",
"_  c #785A76",
"`  c #6E6269",
"'  c #77686A",
"]  c #746274",
"[  c #7D6D7B",
"{  c #796676",
"}  c #7E707F",
"|  c #6F6472",
" . c #877E5F",
".. c #826B7E",
"X. c #85677F",
"o. c #827479",
"O. c #69811F",
"+. c #7D863B",
"@. c #879E1A",
"#. c #8FAB1A",
"$. c #849D27",
"%. c #94AB2B",
"&. c #9AB326",
"*. c #8BA135",
"=. c #97AA3C",
"-. c #98B535",
";. c #A3BC34",
":. c #A5C53D",
">. c #A8C83B",
",. c #8B9E42",
"<. c #8FA34E",
"1. c #98A847",
"2. c #9FB948",
"3. c #9CAA5A",
"4. c #A8BB4D",
"5. c #AFBF5A",
"6. c #8E807D",
"7. c #928E68",
"8. c #95A566",
"9. c #A7B361",
"0. c #B4BE68",
"q. c #ACAB74",
"w. c #A8AE6F",
"e. c #ABCA45",
"r. c #B1CB4A",
"t. c #B4DA46",
"y. c #B2CA52",
"u. c #B8CA5B",
"i. c #BCD755",
"p. c #AAC051",
"a. c #B7C768",
"s. c #B9C479",
"d. c #BED468",
"f. c #C2DD5C",
"g. c #C1CC77",
"h. c #CADD72",
"j. c #D1E86F",
"k. c #7D6681",
"l. c #7F7180",
"z. c #866C86",
"x. c #857284",
"c. c #8D7B8B",
"v. c #8A7686",
"b. c #90778D",
"n. c #8F7C90",
"m. c #947E94",
"M. c #947D99",
"N. c #8D808A",
"B. c #91878C",
"V. c #8F8191",
"C. c #958593",
"Z. c #998196",
"A. c #9C8699",
"S. c #9C8B9C",
"D. c #968797",
"F. c #9E9299",
"G. c #A38D9D",
"H. c #A2959E",
"J. c #B3B28F",
"K. c #9C88A4",
"L. c #A58DA3",
"P. c #A593A3",
"I. c #AC94AA",
"U. c #AE99AB",
"Y. c #A896A6",
"T. c #B19CAE",
"R. c #B49BB1",
"E. c #ADA4AD",
"W. c #B5A1B3",
"Q. c #B4ABB2",
"!. c #BAA8B9",
"~. c #BDB2BC",
"^. c #C3BABB",
"/. c #BDC585",
"(. c #D3DF9F",
"). c #C6CF92",
"_. c #D4E396",
"`. c #D6EA87",
"'. c #E3F494",
"]. c #D2DBA6",
"[. c #DFE9B3",
"{. c #EDFBAC",
"}. c #EAF4BA",
"|. c #E5EFB3",
" X c #C2AEC1",
".X c #C5B9C5",
"XX c #CEC2CC",
"oX c #C9C5C1",
"OX c #D4CBD3",
"+X c #D9C9D4",
"@X c #DCD2DC",
"#X c #D7D0D7",
"$X c #D8D0CD",
"%X c #E3DEDA",
"&X c #E8EACC",
"*X c #EBF8C2",
"=X c #F6FFCC",
"-X c #FEFFC5",
";X c #FCFFD2",
":X c #FDFFDB",
">X c #F6FBD3",
",X c #EBEAD8",
"<X c #E3DCE3",
"1X c #E8DEE7",
"2X c #EAE4E3",
"3X c #ECE6EC",
"4X c #EFEAE4",
"5X c #F2EAEC",
"6X c #FDFFE4",
"7X c #FEFFEC",
"8X c #F5F7EB",
"9X c #EEECF1",
"0X c #EEE6F1",
"qX c #F3EDF4",
"wX c #FBEEF8",
"eX c #F6F2F5",
"rX c #FAF5F4",
"tX c #F6F8F3",
"yX c #FEFEF4",
"uX c #F6F5FA",
"iX c #FCF5FD",
"pX c #FFFFFF",
/* pixels */
"pXpXpXpXpXpXpXpXpXpXpXpXpXpXpXpXpXpXpXpXpXpXpXpXpXpXpXpXpXpXpXpXpXpXpXpXpXpXpXpXpXpXpXpXpXpXpXpXpXpXpXpXpXpXpXpXpXpXpXpXpXpXpXpX",
"pXpXpXpXpXpXpXpXpXpXpXpXpXpXpXpXpXpXpXpXpXpXpXpXpXpXpXpXpXpXpXpXpXpXpXpXpXpXpXpXpXpXpXpXpXpXpXpXpXpXpXpXpXpXpXpXpXpXpXpXpXpXpXpX",
"pXpXpXpXpXpXpXpXpXpXpXpXpXpXpXpXpXpXpXpXpXpXpXpXpXpXpXpXpXpXpXpXpXpXpXpXpXpXpXpXpXpXpXpXpXpXpXpXpXpXpXpXpXpXpXpXpXpXpXpXpXpXpXpX",
"pXpXpXpXpXpXpXpXpXpXpXpXpXpXpXpXpXpXpXpXpXpXpXpXpXpXpXpXpXpXpXpXpXpXpXpXpXpXpXpXpXpXpXpXpXpXpXpXpXpXpXpXpXpXpXpXpXpXpXpXpXpXpXpX",
"pXpXpXpXpXpXpXpXpXpXpXpXpXpXpXpXpXpXpXpXpXpXpXpXpXpXpXpXpXpXpXpXpXpXpXpXpXpXpXpXpXpXpXpXpXpXpXpXpXpXpXpXpXpXpXpXpXpXpXpXpXpXpXpX",
"pXpXpXpXpXpXpXpXpXpXpXpXpXpXpXpXpXpXpXpXpXpXpXpXpXpXpXpXpXpXpXpXpXpXpXpXpXpXpXpXpXpXpXpXpXpXpXpXpXpXpXpXpXpXpXpXpXpXpXpXpXpXpXpX",
"pXpXpXpXpXpXpXpXpXpXpXpXpXpXpXpXpXpXpXpXpXpXpXpXpXpXpXpXpXpXpXpXpXpXpXpXpXpXpXpXpXpXpXpXpXpXpXpXpXpXpXpXpXpXpXpXpXpXpXpXpXpXpXpX",
"pXpXpXpXpXpXpXpXpXpXpXpXpXpXpXpXpXpXpXpXpXpXpXpXpXpXpXpXpXpXpXpXpXpXpXpXpXpXpXpXpXpXpXpXpXpXpXpXpXpXpXpXpXpXpXpXpXpXpXpXpXpXpXpX",
"pXpXpXpXpXpXpXpXpXpXpXpXpXpXpXpXpXpXpXpXpXpXpXpXpXpXpXpXpXpXpXpXpXpXpXpXpXpXpXpXpXpXpXpXpXpXpXpXpXpXpXpXpXpXpXpXpXpXpXpXpXpXpXpX",
"pXpXpXpXpXpXpXpXpXpXpXpXpXpXpXpXpXpXpXpXpXpXpXpXpXpXpXpXpXpXpXpXpXpXpXpXpXpXpXpXpXpXpXpXpXpXpXpXpXpXpXpXpXpXpXpXpXpXpXpXpXpXpXpX",
"pXpXpXpXpXpXpXpXpXpXpXpXpXpXpXpXpXpXpXpXpXpXpXpXpXpXpXpXpXpXpXpXpXpXpXpXpXpXpXpXpXpXpXpXpXpXpXpXpXpXpXpXpXpXpXpXpXpXpXpXpXpXpXpX",
"pXpXpXpXpXpXpXpXpXpXpXpXpXpXpXpXpXpXpXpXpXpXpXpXpXpXpXpXpXpXpXpXpXpXpXpXpXpXpXpXpXpXpXpXpXpXpXpXpXpXpXpXpXpXpXpXpXpXpXpXpXpXpXpX",
"pXpXpXpXpXpXpXpXpXpXpXpXpXpXpXpXpXpXpXpXpXpXpXpXpXpXpXpXpXpXpXpXpXpXpXpXpXpXpXpXpXpXpXpXpXpXpXpXpXpXpXpXpXpXpXpXpXpXpXpXpXpXpXpX",
"pXpXpXpXpXpXpXpXpXpXpXpXpXpXpXpXpXpXpXpXpXpXpXpXpXpXpXpXpXpXpXpXpXpXpXpXpXpXpXpXpXpXpXpXpXpXpXpXpXpXpXpXpXpXpXpXpXpXpXpXpXpXpXpX",
"pXpXpXpXpXpXpXpXpXpXpXpXpXpXpXpXpXpXpXpXpXpXpXpXpXpXpXpXpXpXpXpXpXpXpXpXpXpXpXpXpXpXpXpXpXpXpXpXpXpXpXpXpXpXpXpXpXpXpXpXpXpXpXpX",
"pXpXpXpXpXpXpXpXpXpXpXpXpXpXpXpXyXpXpXpXpXpXpXpXpXpXpXpXpXpXpXpXpXpXpXpXpXpXpXpXpXpXpXpXpXpXpXpXpXpXpXpXpXpXpXpXpXpXpXpXpXpXpXpX",
"yXyXiXpXpXpXyXpXpXpXpXpXpXpXyX7X7XyXpXpXpXpXyXyXyXpXpXpXiXpXpXpXpXpXyXpXpXpXpXpXpXpXpXyXpXpXpXpXpXpXpXuXpXpXpXpXpXpXpXpXpXpXpXpX",
"yXpXpXpXpXpXpXpXpXpXpXiXpXpXyX7X7XpXpXpXpXyXyXyXyXpXpXpXpXpXpXyXyXpXpXpXpXpXpXpXpXyXpXpXyXyXpXpXuXpXpXpXpXyXtXyXpXpXpXpXpXpXpXpX",
"pXpXiXpXpXpXpXpXpXpXpXpXiXyXyXpXpXpXpXpXpXpXyXyXyXyXpXpXpXpX7X7XpXpXpXpXpXpXpXpXpXpXuXpXpXpXpXiXpXpXtXuXpXpXpXpXpXyXpXpXpXpXpXpX",
"pXpXpXpXpXiXpXpXpXyXyXyXyXpXpXpXpXpXpXiXpXpXpXyXyXpXpXpXpXiX7XyXyXpXpXpXpXpXpXpXtXpXpXpXpXuXpXpXuXpXpXpXpXpXyXpXpXpXpXpXpXpXpXpX",
"pXpXyXyXyXyXpXpXpXpXyXyXiXpXpXiXpXpXpXpXpXpXpXyXyXpXpXpXpXpXyXpXpXpXpXpXpXpXpXpXpXpXpXpXpXpXiXiXpXpXuXiXpXpXtXpXpXpXpXpXpXpXpXpX",
"pXpXyX7X7XyXpXpXpXpXyXyXpXpXpXpXpXpXpXpXpXpXpXyXpXpXpXpXpXpXpXpXpXpXpXpXpXpXpXpXpXiXiXiXiXqXqXqXpXiXpXpXiXpXpXpXpXpXpXpXpXpXpXpX",
"pXyXyXpXpXpXpXpXpXpXyX7XyXpXpXpXpXpXpXpXyXpXyXpXpXpXpXiXpXpXpXpXpXpXpXpXpXpXpXpXiXiX1X.XS.l.} c.C.Q.@XuXpXiXyXpXpXpXpXpXpXpXpXpX",
"pXpXiXpXpXpXpXpXpXpXpXpXyXpXpXpXpXiXpXpXyXpXyXyXpXpXpXpXpXpXpXpXpXpXpXpXpXpXiXpXOXP.( V N M h f N V / F.<XpXpXiXpXpXpXpXpXpXpXpX",
"pXpXpXiXpXpXyXpXyXpXpXpXpXpXpXpXpXtXpXyXrXyXiXrXpXpXpXpXpXyXyXyXuXiXiXiXpXwX.XZ.^ K A U ! U f 8 3 p V h ] 2XpXpXpXpXpXpXpXpXpXpX",
"pXiXuXpXpXyX,X&X6X7XpXpXpXpXpXiX8XyX7X7X6X%X4XpXpXiXiXpXpXpXpXpXiXpXiX+XH.{ Y J U X.m.G.b.( Z d 8 9 u t F C.pXpXiXpXpXpXpXpXpXpX",
"pXuXiXpXyX>X].w.|.=X:X7X8XyXpXyX6X;X;X=X>X&X,XrXpXpXpXpXpXeX<X#X~.P.[ P j M ^ b.L.L.R.G.X.U g 8 4 4 9 9 N | @XpXpXiXpXpXpXpXpXpX",
"7XyXpXpXtX6X].3.1.g.{.-X;X:X6X:X}._.).).J.).J.o.c.V.c.m.N.l.| / L N h P X.G.U.W.^.I.m.z.~ Z d # < 5 5 9 N C.E.iXpXpXpXpXpXpXpXpX",
"6X7XpXuXpXuX6X(.1.-.-.i.j.'.{.{.`.h.h.a.a.J. .F K K J A H K K Q ! ( v.L.T.W.T.P.C.x.) U n y 9 2 2 8 8 < y P.F.eXpXpXpXpXpXpXpXpX",
"7X7XpXpXpXpXyX;X(.4.@.&.>.r.4.4.y.i.j.u.g.9. .o.C.Z.M.c.n.n.K.K.Y.E.W.I.G.A.b.../ K M y 4 4 7 8 2 4 8 $ < o.Y.@XpXpXpXpXpXpXpXpX",
"pXpXpXpXpXuXtXtX:X[.0.=.%.&.&.;.>.f.j.u.5.x E  .v.M.A.G.G.H.I.I.K.S.D.c.x.] J y w 3 , 3 7 7 7 $ 2 > 8 2 , J D..XiXpXpXpXpXpXpXpX",
"pXpXpXtXpXpXpXpX8X7X>X/.1.%.&.#.:.e.i.r.1.* = e f B A K L Y R ^ / ! K N c w 7 ; + + + + $ 3 7 8 8 2 4 $ , f ` XXpXpXpXpXpXpXpXpX",
"pXpXpXpXpXpXpXpXuXpX7X6X[.3.1.%.-.>.>.y.0.x @ & 7 q q q 0 0 9 9 7 4 4 3 $ $ + X ; + + , 4 2 2 2 > > > 2 8 7 G @XpXpXyXpXpXpXpXpX",
"yXiXpXpXpXpXpXpXpXpXpXtX7X}.3.1.>.t.e.=.g.g.z   X ; 1 ; O % % . $ % $ $ $ $ 3 3 + < 5 1 2 0 0 2 > # # # 2 t / 5XpXpXpXpXpXpXpXpX",
"pXpXpXpXpXpXpXpXpXpXpX8X7X:Xs.2.f.t.>.r.y.g.q.k . + ; O O # % % % $ $ $ ; + + + , 4 0 0 b d 2 : > > # < 9 t Y.pXiXyXpXpXpXpXpXpX",
"pXpXpXpXpXpXpXpXpXuXpXpX8X6X|.3.e.>.>.%.5.9.q.J.G h 9 8 4 $ . . % < 4 4 4 4 6 6 B Z ~ _ _ Z 2 : # $ # < 4 Y 5XpXpXpXpXpXpXpXpXpX",
"pXpXpXpXpXpXpXpXpXpXuXpXyX6X;Xs.*.:.+.%.1.+.8. .' G n n S n g f g g y i m K / ] x.M.R.R.z.n < > > # , + N .XpXiXpXpXpXpXpXpXpXpX",
"pXpXpXpXpXpXyXpXpXpXpXpXpX7X6X*X<.O.<.p.+.z W E ' ' ) ^ Q ~ ^ ^ ( ) { ..m.P.R.~.W.R.I.z.A 5 # O O O ; P !.pXiXpXpXyXpXpXpXpXpXpX",
"pXpXpXpXpXpXpXpXiXpXpXiXyXyX7X6X*X8.- - z z l G R ] k.k.k.M.L.L.C.G.P.R. X X X!.P.v.Y i < $ : , O t K !.pXpXiXpXiXpXpXiXpXpXpXpX",
"pXpXpXpXpXpXpXpXpXpXuXpXpXiXpX8XtXtX/.E r r r j h b n S Q ~ _ { z.o.c.A.K.S.x.] P i , O O # , 7 J [ @XpXiXeXiXpXpXpXpXpXpXpXpXpX",
"pXpXpXpXpXpXpXpXpXpXpXpXpXpXpXpXtXpXuX8XoXB.I D N v c c c c p p f p f a u t 6 6 3 X X X ; u Y x.~.@X9X9X9XuXpXuXpXpXpXpXpXpXpXpX",
"pXpXpXpXyXpXpXpXpXpXpXpXpXpXpXpXpXuX9XuXpXeXOXQ.{ / H C v c s v h p a a u u u u w w v H ] c.W.XXOX<XqX9XeXiXpXpXpXpXpXpXpXpXpXpX",
"pXpXpXpXpXyXpXpXpXpXpXpXpXpXpXiXpXuXuXpXpXuXtX9X3X$XQ.F.o.` I F D D D N D F I / l.l.D.E.~.XX@X2X0X9XuXeXuXpXpXiXpXpXpXpXpXpXpXpX",
"pXpXpXiXpXpXpXpXpXpXpXpXpXpXpXpXpXpXpXuXeXtXuXuX8X4X4X2X%X$XoX^.Q.E.E.E.Q.Q..X.XXXOX#X<X3X3X0X3XpXuXuXpXpXpXpXpXpXpXpXpXpXpXpXyX",
"pXpXyXpXyXpXpXpXpXpXpXyXyXpXpXpXpXpXpXpXpXpXpXpXyXtXyXyXyXrXrXeXuXeXqXqXqXqXqXeXuXtXuXuXiXpXpXpXpXpXpXpXpXpXpXpXpXpXpXpXpXpXpXpX",
"pXpXpXpXpXpXpXpXpXpXyXyXyXpXpXpXuXpXpXpXpXuXpXpXyXpXpXpXpXyXiXpXpXpXpXpXpXpXpXpXpXpXpXpXpXpXpXpXpXpXpXpXpXiXpXpXpXpXpXpXpXpXpXyX",
"pXpXyXyXiXpXpXpXpXpXyXyXyXyXpXpXpXyXuXuXpXpXpXpXpXpXpXpXpXpXpXpXpXpXpXpXpXpXpXpXpXuXpXpXpXpXpXpXpXpXpXpXpXpXpXpXpXpXpXpXpXpXpXpX",
"pXpXpXyXpXpXpXpXpXpXyXyXyXpXpXpXpXpXpXpXpXuXpXpXpXpXpXpXpXpXpXpXpXpXpXpXpXpXpXpXpXpXpXpXpXpXpXpXpXpXpXuXpXpXpXiXpXpXpXpXpXpXpXpX",
"pXpXpXpXpXpXpXpXpXpXpXpXpXpXpXpXpXpXpXpXpXpXpXpXpXpXpXpXpXpXpXpXpXpXpXpXpXpXpXpXpXpXpXpXpXpXpXpXpXpXpXpXpXpXpXpXpXpXpXpXpXpXpXpX",
"pXpXpXpXpXpXpXpXpXpXpXpXpXpXpXpXpXpXpXpXpXpXpXpXpXpXpXpXpXpXpXpXpXpXpXpXpXpXpXpXpXpXpXpXpXpXpXpXpXpXpXpXpXpXpXpXpXpXpXpXpXpXpXpX",
"pXpXpXpXpXpXpXpXpXpXpXpXpXpXpXpXpXpXpXpXpXpXpXpXpXpXpXpXpXpXpXpXpXpXpXpXpXpXpXpXpXpXpXpXpXpXpXpXpXpXpXpXpXpXpXpXpXpXpXpXpXpXpXpX",
"pXpXpXpXpXpXpXpXpXpXpXpXpXpXpXpXpXpXpXpXpXpXpXpXpXpXpXpXpXpXpXpXpXpXpXpXpXpXpXpXpXpXpXpXpXpXpXpXpXpXpXpXpXpXpXpXpXpXpXpXpXpXpXpX",
"pXpXpXpXpXpXpXpXpXpXpXpXpXpXpXpXpXpXpXpXpXpXpXpXpXpXpXpXpXpXpXpXpXpXpXpXpXpXpXpXpXpXpXpXpXpXpXpXpXpXpXpXpXpXpXpXpXpXpXpXpXpXpXpX",
"pXpXpXpXpXpXpXpXpXpXpXpXpXpXpXpXpXpXpXpXpXpXpXpXpXpXpXpXpXpXpXpXpXpXpXpXpXpXpXpXpXpXpXpXpXpXpXpXpXpXpXpXpXpXpXpXpXpXpXpXpXpXpXpX",
"pXpXpXpXpXpXpXpXpXpXpXpXpXpXpXpXpXpXpXpXpXpXpXpXpXpXpXpXpXpXpXpXpXpXpXpXpXpXpXpXpXpXpXpXpXpXpXpXpXpXpXpXpXpXpXpXpXpXpXpXpXpXpXpX",
"pXpXpXpXpXpXpXpXpXpXpXpXpXpXpXpXpXpXpXpXpXpXpXpXpXpXpXpXpXpXpXpXpXpXpXpXpXpXpXpXpXpXpXpXpXpXpXpXpXpXpXpXpXpXpXpXpXpXpXpXpXpXpXpX",
"pXpXpXpXpXpXpXpXpXpXpXpXpXpXpXpXpXpXpXpXpXpXpXpXpXpXpXpXpXpXpXpXpXpXpXpXpXpXpXpXpXpXpXpXpXpXpXpXpXpXpXpXpXpXpXpXpXpXpXpXpXpXpXpX",
"pXpXpXpXpXpXpXpXpXpXpXpXpXpXpXpXpXpXpXpXpXpXpXpXpXpXpXpXpXpXpXpXpXpXpXpXpXpXpXpXpXpXpXpXpXpXpXpXpXpXpXpXpXpXpXpXpXpXpXpXpXpXpXpX",
"pXpXpXpXpXpXpXpXpXpXpXpXpXpXpXpXpXpXpXpXpXpXpXpXpXpXpXpXpXpXpXpXpXpXpXpXpXpXpXpXpXpXpXpXpXpXpXpXpXpXpXpXpXpXpXpXpXpXpXpXpXpXpXpX",
"pXpXpXpXpXpXpXpXpXpXpXpXpXpXpXpXpXpXpXpXpXpXpXpXpXpXpXpXpXpXpXpXpXpXpXpXpXpXpXpXpXpXpXpXpXpXpXpXpXpXpXpXpXpXpXpXpXpXpXpXpXpXpXpX",
"pXpXpXpXpXpXpXpXpXpXpXpXpXpXpXpXpXpXpXpXpXpXpXpXpXpXpXpXpXpXpXpXpXpXpXpXpXpXpXpXpXpXpXpXpXpXpXpXpXpXpXpXpXpXpXpXpXpXpXpXpXpXpXpX",
"pXpXpXpXpXpXpXpXpXpXpXpXpXpXpXpXpXpXpXpXpXpXpXpXpXpXpXpXpXpXpXpXpXpXpXpXpXpXpXpXpXpXpXpXpXpXpXpXpXpXpXpXpXpXpXpXpXpXpXpXpXpXpXpX",
"pXpXpXpXpXpXpXpXpXpXpXpXpXpXpXpXpXpXpXpXpXpXpXpXpXpXpXpXpXpXpXpXpXpXpXpXpXpXpXpXpXpXpXpXpXpXpXpXpXpXpXpXpXpXpXpXpXpXpXpXpXpXpXpX",
"pXpXpXpXpXpXpXpXpXpXpXpXpXpXpXpXpXpXpXpXpXpXpXpXpXpXpXpXpXpXpXpXpXpXpXpXpXpXpXpXpXpXpXpXpXpXpXpXpXpXpXpXpXpXpXpXpXpXpXpXpXpXpXpX"
};
