/* XPM */
static char *ee6e47d361454679dcf9049c28af7427SP8w6ApIcAwJuVaw[] = {
/* columns rows colors chars-per-pixel */
"64 64 248 2 ",
"   c #0B3102",
".  c #0E4200",
"X  c #144B00",
"o  c #184A02",
"O  c #1D5301",
"+  c #1B5503",
"@  c #214C08",
"#  c #255B03",
"$  c #2A5D04",
"%  c #265809",
"&  c #244C15",
"*  c #295A14",
"=  c #325D12",
"-  c #30521C",
";  c #315E0B",
":  c #2B6303",
">  c #2C630B",
",  c #2A6704",
"<  c #336B0D",
"1  c #356A08",
"2  c #387709",
"3  c #2E6515",
"4  c #346B14",
"5  c #35641A",
"6  c #3C6D1B",
"7  c #356718",
"8  c #3C721A",
"9  c #397715",
"0  c #2C7000",
"q  c #335625",
"w  c #3B6C22",
"e  c #3E7723",
"r  c #416E1B",
"t  c #457819",
"y  c #436927",
"u  c #447323",
"i  c #467826",
"p  c #4B7335",
"a  c #4D6D38",
"s  c #537046",
"d  c #637F50",
"f  c #3D850C",
"g  c #4A8C0C",
"h  c #458A08",
"j  c #4C920B",
"k  c #478716",
"l  c #518D1C",
"z  c #4D9314",
"x  c #4D9B1B",
"c  c #4D931B",
"v  c #549D1C",
"b  c #5A9B1D",
"n  c #559816",
"m  c #56950F",
"M  c #609E15",
"N  c #5CA31D",
"B  c #59A41A",
"V  c #4FA11B",
"C  c #65A71A",
"Z  c #4A8828",
"A  c #518E28",
"S  c #4D9422",
"D  c #539523",
"F  c #569C24",
"G  c #5B9C22",
"H  c #54942C",
"J  c #599829",
"K  c #57863A",
"L  c #5A9936",
"P  c #4F8934",
"I  c #639C34",
"U  c #649B3A",
"Y  c #739D3B",
"T  c #5CA324",
"R  c #5CA629",
"E  c #5FA434",
"W  c #64AB24",
"Q  c #63A32B",
"!  c #64AD2A",
"~  c #6BAE2A",
"^  c #66A725",
"/  c #6CB32C",
"(  c #69B224",
")  c #73B52A",
"_  c #78BA29",
"`  c #6BAC34",
"'  c #64A33B",
"]  c #68A836",
"[  c #74AA38",
"{  c #6DB333",
"}  c #6EB537",
"|  c #71B434",
" . c #7BB535",
".. c #74B831",
"X. c #7BBB35",
"o. c #74B43B",
"O. c #7AB43B",
"+. c #76BA3B",
"@. c #7BBC3C",
"#. c #72AE28",
"$. c #79C02B",
"%. c #7CC23B",
"&. c #7CC436",
"*. c #5D8147",
"=. c #648949",
"-. c #6C9A4B",
";. c #66845A",
":. c #709851",
">. c #6AA343",
",. c #6BAA43",
"<. c #78AB46",
"1. c #73B642",
"2. c #7AB443",
"3. c #7CBC42",
"4. c #79B748",
"5. c #7CA956",
"6. c #768E6B",
"7. c #7EC342",
"8. c #83BD3A",
"9. c #85BB38",
"0. c #87BE2F",
"q. c #85C62E",
"w. c #83C43C",
"e. c #8BC43A",
"r. c #86C839",
"t. c #94CC3E",
"y. c #8DD33B",
"u. c #95D43B",
"i. c #84BE43",
"p. c #87BA49",
"a. c #86AD5A",
"s. c #88B557",
"d. c #96BC52",
"f. c #819A6E",
"g. c #86A868",
"h. c #8DB663",
"j. c #92BB69",
"k. c #8DA67D",
"l. c #97B975",
"z. c #91AD70",
"x. c #84C344",
"c. c #8CC544",
"v. c #84C942",
"b. c #8BCB43",
"n. c #83C34A",
"m. c #8CC44B",
"M. c #8CC94B",
"N. c #93CB45",
"B. c #92CA4B",
"V. c #93C34B",
"C. c #8DD148",
"Z. c #95D44B",
"A. c #9CD34C",
"S. c #99DA4C",
"D. c #98D445",
"F. c #8BC452",
"G. c #89C854",
"H. c #94CC52",
"J. c #9ACF55",
"K. c #95C758",
"L. c #8FD253",
"P. c #9AD452",
"I. c #97D456",
"U. c #A3D74A",
"Y. c #A2D959",
"T. c #A5D857",
"R. c #A0CA5C",
"E. c #A8E458",
"W. c #A1E449",
"Q. c #97C766",
"!. c #9DD661",
"~. c #9CC675",
"^. c #8FC661",
"/. c #A4CD68",
"(. c #AADB69",
"). c #A5CB7B",
"_. c #A9D576",
"`. c #B6D679",
"'. c #ABE865",
"]. c #B1E86B",
"[. c #889C81",
"{. c #96AF86",
"}. c #A4BA8C",
"|. c #9EC18B",
" X c #A9C884",
".X c #B4DB87",
"XX c #A7C793",
"oX c #B5D496",
"OX c #B8D39C",
"+X c #AFD190",
"@X c #B9E48D",
"#X c #ADC3A5",
"$X c #BECFA8",
"%X c #BDDDAD",
"&X c #BCD4B7",
"*X c #C0D997",
"=X c #C2E89A",
"-X c #C1D8A9",
";X c #C4D8B9",
":X c #D1DFBC",
">X c #C7E5A8",
",X c #C9E4B6",
"<X c #D2EAB9",
"1X c #D6F3BA",
"2X c #D1F0A8",
"3X c #E1FBBC",
"4X c #C9D8C1",
"5X c #D3DFD3",
"6X c #D8EAC7",
"7X c #DBF5C3",
"8X c #DBF5C6",
"9X c #D6EBCF",
"0X c #E6FEC7",
"qX c #ECFEDA",
"wX c #E6F8D6",
"eX c #F3FFDC",
"rX c #F9FFDE",
"tX c #F1FFCD",
"yX c #EDFEE4",
"uX c #E9F5E8",
"iX c #F3FFE3",
"pX c #F9FFE3",
"aX c #F4FEEC",
"sX c #FAFFEC",
"dX c #EFFAF1",
"fX c #F5FEF4",
"gX c #FCFFF5",
"hX c #F7FEFC",
"jX c #FFFFFB",
"kX c #FFFFFB",
"lX c #FDFEFA",
"zX c #FEFBFE",
"xX c #FBFFFF",
"cX c #FEFFFD",
"vX c #FFFFFD",
"bX c #FFFEFD",
"nX c #FFFDFF",
"mX c #FFFCFF",
"MX c #FCFFFF",
"NX c #FDFFFE",
"BX c #FFFEFF",
"VX c #FEFFFF",
"CX c white",
"ZX c #FEFEFF",
"AX c #FDFEFD",
"SX c #FEFFFE",
"DX c #F6F6F7",
"FX c #E2EBE6",
/* pixels */
"CXCXCXCXCXCXCXCXCXCXCXCXCXCXCXCXCXCXCXCXCXCXCXCXCXCXCXCXCXCXCXCXCXhXCXCXCXCXzXCXlXlXlXCXCXCXCXCXxXxXhXCXCXCXCXzXCXzXzXCXCXCXCXCX",
"CXCXCXCXCXCXCXCXCXCXCXCXCXCXCXCXCXCXCXCXCXCXCXCXCXCXCXCXCXCXCXCXlXCXCXCXCXCXCXCXCXCXlXlXCXCXCXCXCXxXCXCXCXCXCXCXCXCXCXCXzXCXCXCX",
"CXCXCXCXCXCXCXCXCXCXCXCXCXCXCXCXCXCXCXCXCXCXCXCXCXCXCXCXCXCXCXlXlXlXCXCXCXCXCXzXCXCXCXCXCXCXzXCXCXCXCXCXCXCXCXCXCXCXCXCXCXCXCXCX",
"CXCXCXCXCXCXCXCXCXCXCXCXCXCXCXCXCXCXCXCXCXCXCXCXCXCXCXCXCXCXCXCXlXCXlXCXCXCXCXCXCXCXCXCXCXCXCXCXzXCXzXCXCXCXlXCXlXCXlXCXxXxXCXxX",
"CXCXCXCXCXCXCXCXCXCXCXCXCXCXCXCXCXCXCXCXCXCXCXCXCXCXCXCXCXCXCXCXCXCXCXCXCXCXlXCXlXlXlXlXlXlXlXCXCXlXlXlXlXlXlXlXlXlXCXlXCXCXCXxX",
"CXCXCXCXCXCXCXCXCXCXCXCXCXCXCXCXCXCXCXCXCXCXCXCXCXCXCXCXCXCXCXCXzXCXCXCXCXCXCXlXlXhXlXlXlXCXCXCXCXlXlXlXlXCXlXlXlXlXCXCXCXCXzXCX",
"CXCXCXCXCXCXCXCXCXCXCXCXCXCXCXCXCXCXCXCXCXCXCXCXCXCXCXCXCXCXCXCXlXCXCXlXCXCXCXxXxXCXCXCXCXCXCXCXCXCXCXxXCXxXxXCXCXCXCXCXCXlXCXlX",
"CXCXCXCXCXCXCXCXCXCXCXCXCXCXCXCXCXCXCXCXCXCXCXCXCXCXCXCXCXCXCXCXlXCXCXlXCXCXxXCXxXCXCXCXCXzXzXCXCXCXCXxXCXCXCXCXCXCXzXCXCXzXlXzX",
"CXCXCXCXCXCXCXCXCXCXCXCXCXCXCXCXCXCXCXCXCXCXCXCXCXCXCXCXCXCXCXCXCXlXCXlXCXCXCXCXxXCXzXCXCXCXDXCXCXzXCXCXCXCXlXzXCXCXCXCXCXzXzXCX",
"CXCXCXCXCXCXCXCXCXCXCXCXCXCXCXCXCXCXCXCXCXCXCXCXCXCXCXCXCXCXCXCXCXCXCXCXCXCXxXCXCXzXzXCXCXlXlXlXlXCXCXlXlXlXlXkXlXCXCXCXCXzXzXCX",
"CXCXCXCXCXCXCXCXCXCXCXCXCXCXCXCXCXCXCXCXCXCXCXCXCXCXCXCXCXCXCXCXxXCXCXCXCXCXCXlXCXlXCXlXCXzXzXCXzXlXCXlXlXlXkXkXlXlXCXCXCXCXCXCX",
"CXCXCXCXCXCXCXCXCXCXCXCXCXCXCXCXCXCXCXCXCXCXCXCXCXCXCXCXCXCXCXCXCXCXCXCXCXCXlXlXCXzXxXCXCXxXCXgXCXCXCXlXlXlXlXkXlXCXlXCXxXCXxXxX",
"CXCXCXCXCXCXCXCXCXCXCXCXCXCXCXCXCXCXCXCXCXCXCXCXCXCXCXCXCXCXCXCXCXCXCXCXCXCXlXCXzXCXCXhXhXhXCXhXhXfXlXhXhXCXzXCXCXCXCXCXxXxXxXxX",
"CXCXCXCXCXCXCXCXCXCXCXCXCXCXCXCXCXCXCXCXCXCXCXCXCXCXCXCXCXCXCXCXCXxXCXCXCXCXCXCXCXhXfXgXfXaXqXwXeXwXiXiXgXgXhXCXCXCXzXCXCXCXhXlX",
"CXCXCXCXCXCXCXCXCXCXCXCXCXCXCXCXCXCXCXCXCXCXCXCXCXCXCXCXCXCXCXCXlXlXlXCXCXCXCXCXhXgXiXeX+X)./.d.`.Q.). X>XwXsXgXCXCXCXCXCXlXlXkX",
"CXCXCXCXCXCXCXCXCXCXCXCXCXlXCXCXCXCXCXCXCXlXCXlXCXCXCXCXCXCXCXCXlXlXCXCXCXCXlXgXiXrX>Xj.[ p.9.V.e.i.m.p.h. XwXkXlXzXCXCXlXkXgXgX",
"CXCXCXxXxXxXCXCXlXCXzXCXCXlXhXkXgXxXzXlXlXgXlXCXlXCXCXCXzXhXCXlXCXCXCXzXCXgXsXeX2X_.O.2.Q c.X.B.8.X.L.x.G.j.tXgXlXCXzXCXhXgXkXgX",
"lXCXCXCXxXCXCXCXCXzXzXCXzXCXhXCXCXDXlXlXsXgXgXgXhXlXhXlXCXCXDXCXCXCXzXCXsXrX3X`.p.O...r.8.v.v.b.X.M.v.~ n.s.wXlXCXzXCXxXhXkXkXkX",
"CXCXlXCXlXCXCXCXlXCXlXzXCXzXzXzXzXzXkXsXpXpXeXaXsXaXzXDXlXCXCXzXlXlXgXpX>X`.d.V.V.m.w.) r.b.v.M.X.x.X.+.2..XaXxXCXCXCXxXxXxXlXCX",
"CXCXlXlXCXCXCXCXhXlXDXCXzXCXzXCXgXiX1X>X*X X).oX<X:XpXsXgXlXzXCXlXaXsX<Xd.T.e.N.i.H.c.t.r.X.Z.7.X.w...x.<.0XsXCXzXCXxXxXxXxXCXCX",
"CXCXlXlXCXCXCXCXCXgXxXxXxXCXlXeX2X).p.2.p.p.p.K./.s.`.0XpXsXkXkXkXsX3Xs.i.N.N.8.B.c.9.t.D.w.w...w...X.i.z.pXgXzXkXkXlXCXCXCXCXCX",
"lXlXlXlXCXCXCXzXhXxXhXxXhXaXpX X2.1.` @.b.8.M.B.N.p.R.`.2XrXpXsXiX<Xa.p.( D.w.b.B.N.9.t.S.) r.$.w.&. .Y 1XfXgXkXgXkXlXCXCXCXCXzX",
"CXlXlXCXzXCXzXCXCXzXhXhXdXqX).<.3.{ 7.~ } H.3.b.J.9.V.T./.`.0XrXpXoX[ 9.C.C.%.L.N.9.A.A.e._ $.( &./ p.).gXxXCXgXsXgXlXCXzXCXzXCX",
"CXCXCXCXCXCXzXCXCXCXCXhXfXXXI ` +.+.7.L.1.3.I.m.J.J.t.U.T./..XtX0Xj. .0.b./ ~ M.D.0.N.c.e.q.$...&.o.).qXgXCXzXkXgXgXCXzXCXzXCXCX",
"CXCXCXxXCXCXCXzXzXCXCXxXfX,X5.O.@.@.o.i.G.o.G.K.(.J.P.B.A.(.(.`.p.[ _ ( ( ^ v W C.r.r.$._ _ ) ~ ( p.0XaXlXCXlXlXlXlXlXlXCXzXCXxX",
"CXCXCXCXCXCXCXCXlXzXzXCXfXiX@X5.1.n.o.n.M.I.F.G.n.H.p.Y.R.R.T.T.9.M M C N z T N ( &.r.r.q.#.X. .[ .XiXlXlXlXzXCXCXhXlXlXCXCXxXxX",
"CXCXCXlXlXCXCXlXlXlXzXCXxXfXpX0X X<.O.X. .x.L.B.D.Y.Y.T.T.T.U.T.A.m j h g g b T / %.r.&.y.M ) [ /.tXsXCXzXzXzXCXCXCXlXlXlXCXxXhX",
"xXCXCXlXlXlXlXlXlXgXxXzXzXCXkXpX0X=X_.K.H.M.c.N.D.C.T.T.E.U.U.U.8.h h m v j g v T T ..W v.~ X.[ 2XpXsXkXzXzXzXzXCXCXlXlXzXCXCXxX",
"CXCXlXlXkXlXlXCXlXlXlXlXCXlXlXgXpXeXeXeX=XQ.J.N.Z.P.Z.A.A.t.D.q./ h 0 0 g f j %.! / ( ( ~ ^ { @XqXaXpXsXfXhXkXCXzXzXCXzXCXCXCXzX",
"CXCXCXlXlXlXCXCXCXCXCXhXaXgXgXiX-Xf.4XqXtX.XK.T.Y.I.Y.A.t.e.u.U.b.B 0 f T C W 7.../ ( / W X.n.K.>X8X0X,X6XyXiXsXxXCXzXlXzXzXCXCX",
"lXCXCXCXCXxXxXCXCXCXhXhXaX8X*.=.i = p 2X0X-.1 ] M.i.H.n.8.C C W.E.$.( $.&.&.( ( R ..( N ) ~ ! ] L U ' a.j.l. X>XwXhXgXkXlXzXCXCX",
"lXCXCXCXCXCXCXxXhXxXaXwX6.:.y 3 r > i =.K 5 # : 2 l k k l b b S.S.y.y.y.$.B ( ! T T ! B n ^ { o.Q J ` n.G.] 4.s.%XyXsXgXkXlXlXzX",
"lXlXCXzXCXCXhXhXfXyX,Xz.5 5 < > 8 > w % o @ + $ : : < < 2 9 2 b S.S.u.y.q.C C B V x V V B ! | Q Q 1.1.` 1.4.G.Q.~.oX7XsXkXlXlXlX",
"gXCXzXzXzXCXxXfXwX*.y i 6 7 i < < < * X o @ O # $ # : > 7 # O X o.%.C _ u.u.C m R R x f V j ^ ! ] ] 1.E 1.G.n.F.s.Q.l.7XsXlXkXlX",
"kXkXCXzXzXzXhXdX%Xw u r 5 6 # 4 9 9 + + o % # > > > > + o 5 3 + , F %.y.u.u.q._ j B V x ! V B %.3.o.{ n.3.G.p.2.K.F.j.-XaXfXlXkX",
"kXlXCXDXCXxXhX&Xy y r 6 u * 4 Z S < , 3 3 6 4 3 k 4 4 3 e %   % # 2 +.Y.y.W.q.u.&.n F z V / ( 7.+. .@.M.i.i.M.'.I.].Q. X8XgXlXlX",
"lXzXCXlXzXgXyX;.w u 6 u w 5 i A Z 9 Z 9 Z e Z Z 9 k Z e # + . + + : t b t.0.t.D.S.r.b z v z ( 7.%.^  .8.O.p.x.8.w.H.Q.).OXsXkXCX",
"CXCXCXlXaXaX;.a y 8 8 6 5 3 L ' D Z Z H L H Z H ' A f , , + + o : 1 t 1 n g m m D.'.b.m j W x } x. .x.i.V.c.V.Z.P.I._.).XXiXlXzX",
"CXCXCXgXgXk.- e 4 < i 3 w 7 >.S J ' L ,.L >.E ,.E Z 4 9 < < : # 1 1 t 1 l g ^ ^ w.'.D.D.C h W %.@.x.x.!.p.F.M.L.M.J.K.j.8XfXlXCX",
"CXxXCXgX9Xa 5 7 8 > * 6 * Z E S J I H L L E ,.H S f Z f f t 2 t t t 1 $ 2 t b n n 8.E.S.w.C j { { +.3.3.4.K.m.B.K.p.s.oXiXgXCXCX",
"CXxXhXgX6Xy = 6 > 3 5 * + ' ' Z >.U ,.,.,.E F R T z x z c x F H l.=.: $ f g z x Q b  .'.S.+.n +.1.7.1.7.+.n.i.m.p.^.>XyXfXlXCXzX",
"xXxXhXdX9Xs * 3 3 5 & X e ,.S H L A ' ,.R D c ! T T T R 1.Q S 9 :.p $ # g z c F R D v o.M.| %.` } } n.L.7.I.M.[ s.1XaXfXlXlXlXCX",
"hXhXlXFX4Xs @ = * * *   w >.H L L ,.E S D R F } R 1.1.E 9 4 + *.XX|.; 1 f R T R S ` ] g ` G 1.o.7.! o.7.o.i.F.h.1XaXfXhXCXlXzXkX",
"kXgXCXDX5X[.a q & & &   e ,.>.P ,.E S F F T } o.} 9 0 + X + * oX,X<Xa.t k ! ` v F E H } ] G k 3.3.x.1.<.n.Q._.1XfXxXxXCXCXDXkXkX",
"kXkXzXdXDXdX&X6.s q     *.>.Z Z H c z T ` @.p.<.1 X . $ ; u d XXXX{. Xh.[ p.[ 3.1.F g i.o.] I I O.O.[ s.).,XiXfXhXxXxXlXkXkXzXzX",
"kXzXgXCXDXFXdXuX9X#X;.q e -.Z e S k D Q 2.I t > = y w a d {.$X<X$X}.f.g.a.a.j.<.4.I J Y I s.Q.L 5.h.h.+X6XiXfXkXCXCXCXCXkXkXzXlX",
"lXCXlXzXzXxXdXFXuXuX9X{.p K P 9 4 H 4.-.K :.g.[.{.#X;X;XwXpXaXuXwX6X:X-XOXk.z.z.j.5.-.h.a.~.j.~.l.+X4XuXaXlXgXkXzXCXxXCXzXCXCXDX",
"CXzXlXCXzXCXzXhXdXFXFX;X{.*.p e p 5.g.l.+X%X6XuXdXfXDXzXgXlXDXlXDXfXsXaXaXeXwXtX8X7X<X3X0X7X7XwXqXyXgXhXlXzXgXlXzXCXzXCXxXzXCXCX",
"CXzXCXCXCXCXCXxXhXhXgXaXaX4X[.6.}.#X;X6XwXuXfXfXCXxXCXCXCXCXCXCXlXlXkXkXkXkXkXgXgXgXsXgXsXgXgXgXgXlXCXCXCXCXlXCXCXCXCXCXCXCXCXCX",
"CXCXzXCXCXCXxXCXxXlXhXgXhXgXaXaXFXaXgXhXCXCXxXxXCXCXCXCXzXCXCXCXCXCXlXCXCXCXlXCXCXCXCXCXCXCXCXCXCXCXCXCXCXCXCXCXCXCXCXCXCXCXCXCX",
"lXCXCXCXCXCXCXCXCXCXhXhXgXkXhXkXkXkXlXgXhXhXlXCXCXCXCXCXCXCXCXCXCXCXCXCXCXCXCXCXCXCXCXCXCXCXCXCXCXCXCXCXCXCXCXCXCXCXCXCXCXCXCXCX",
"CXCXCXCXCXCXCXCXCXxXCXCXgXhXlXgXlXlXhXhXlXCXCXCXCXxXCXCXCXCXCXCXCXCXCXCXCXCXCXCXCXCXCXCXCXCXCXCXCXCXCXCXCXCXCXCXCXCXCXCXCXCXCXCX",
"CXlXCXCXCXCXCXCXCXCXhXzXCXkXgXlXlXlXlXlXCXCXCXzXCXCXCXCXCXCXCXCXCXCXCXCXCXCXCXCXCXCXCXCXCXCXCXCXCXCXCXCXCXCXCXCXCXCXCXCXCXCXCXCX",
"lXCXCXCXCXCXCXCXzXCXlXxXxXCXCXlXCXlXCXCXxXCXCXCXCXCXCXCXCXCXCXCXCXCXCXCXCXCXCXCXCXCXCXCXCXCXCXCXCXCXCXCXCXCXCXCXCXCXCXCXCXCXCXCX",
"CXCXCXCXCXCXCXCXCXCXxXCXCXzXCXCXCXlXCXCXCXCXCXCXCXCXCXCXCXCXCXCXCXCXCXCXCXCXCXCXCXCXCXCXCXCXCXCXCXCXCXCXCXCXCXCXCXCXCXCXCXCXCXCX",
"CXlXCXCXCXCXCXCXCXCXzXCXCXCXCXlXCXCXCXCXCXCXCXCXCXCXCXCXCXCXCXlXCXCXCXCXCXCXCXCXCXCXCXCXCXCXCXCXCXCXCXCXCXCXCXCXCXCXCXCXCXCXCXCX",
"CXlXCXCXCXCXCXCXCXCXCXCXCXCXCXzXCXCXCXCXCXCXCXCXCXCXCXCXCXCXlXCXCXCXCXCXCXCXCXCXCXCXCXCXCXCXCXCXCXCXCXCXCXCXCXCXCXCXCXCXCXCXCXCX",
"CXCXCXCXCXCXCXCXCXCXCXCXzXCXCXCXzXCXCXzXCXzXCXCXCXCXCXCXCXCXCXCXCXCXCXCXCXCXCXCXCXCXCXCXCXCXCXCXCXCXCXCXCXCXCXCXCXCXCXCXCXCXCXCX",
"CXCXCXCXCXCXCXCXCXCXCXCXCXCXCXzXCXCXCXCXCXCXCXCXCXCXCXCXCXCXCXCXCXCXCXCXCXCXCXCXCXCXCXCXCXCXCXCXCXCXCXCXCXCXCXCXCXCXCXCXCXCXCXCX",
"CXCXCXCXCXCXCXCXCXCXCXCXCXCXCXCXCXCXCXCXCXCXCXCXCXCXCXCXCXCXCXCXCXCXCXCXCXCXCXCXCXCXCXCXCXCXCXCXCXCXCXCXCXCXCXCXCXCXCXCXCXCXCXCX",
"CXCXCXCXCXCXCXCXCXCXCXCXCXCXCXCXCXCXCXCXCXCXCXCXCXCXCXCXCXCXCXCXCXCXCXCXCXCXCXCXCXCXCXCXCXCXCXCXCXCXCXCXCXCXCXCXCXCXCXCXCXCXCXCX",
"CXCXCXCXCXCXCXCXCXCXCXCXCXCXCXCXCXCXCXCXCXCXCXCXCXCXCXCXCXCXCXCXCXCXCXCXCXCXCXCXCXCXCXCXCXCXCXCXCXCXCXCXCXCXCXCXCXCXCXCXCXCXCXCX",
"CXCXCXCXCXCXCXCXlXCXlXCXCXCXCXCXxXCXCXxXCXCXCXCXCXCXCXCXCXCXCXCXCXCXCXCXCXCXCXCXCXCXCXCXCXCXCXCXCXCXCXCXCXCXCXCXCXCXCXCXCXCXCXCX",
"CXCXCXCXCXCXCXCXlXCXCXCXlXlXCXlXCXCXCXCXCXCXlXCXlXlXCXCXCXCXCXCXCXCXCXCXCXCXCXCXCXCXCXCXCXCXCXCXCXCXCXCXCXCXCXCXCXCXCXCXCXCXCXCX"
};
