/* XPM */
static char *da2ea5c6bf7844659a3caf691e6d1ae0iEcgxoCeqVhxdTg7[] = {
/* columns rows colors chars-per-pixel */
"64 46 249 2 ",
"   c #2B570E",
".  c #355205",
"X  c #2D5315",
"o  c #2C4607",
"O  c #37670C",
"+  c #366916",
"@  c #367216",
"#  c #3F622A",
"$  c #4B5904",
"%  c #565201",
"&  c #466206",
"*  c #597817",
"=  c #4C6D1A",
"-  c #726B17",
";  c #446C28",
":  c #49762A",
">  c #4A7833",
",  c #567738",
"<  c #52712D",
"1  c #587446",
"2  c #6B7A58",
"3  c #8C6D16",
"4  c #8A7829",
"5  c #B8702F",
"6  c #FB7C05",
"7  c #F47B0B",
"8  c #FA7C0B",
"9  c #F8780A",
"0  c #EE7E1A",
"q  c #FF7711",
"w  c #F47C13",
"e  c #FC7C15",
"r  c #F57E1B",
"t  c #FD7C1B",
"y  c #F5741B",
"u  c #D96F25",
"i  c #DC7A29",
"p  c #DE7C32",
"a  c #C97B26",
"s  c #E87528",
"d  c #F57D23",
"f  c #FD7D23",
"g  c #FC7C2B",
"h  c #F87829",
"j  c #FD7E32",
"k  c #F67B33",
"l  c #E7772F",
"z  c #877E43",
"x  c #BB6C41",
"c  c #D17445",
"v  c #E67D44",
"b  c #59872C",
"n  c #588737",
"m  c #5A9438",
"M  c #4F8A2A",
"N  c #62893A",
"B  c #66963C",
"V  c #7E8325",
"C  c #5B8644",
"Z  c #5E9341",
"A  c #648A48",
"S  c #659443",
"D  c #69984C",
"F  c #698856",
"G  c #699D56",
"H  c #739857",
"J  c #78895D",
"K  c #6EA551",
"L  c #7B8D6C",
"P  c #789866",
"I  c #7BA762",
"U  c #9C8128",
"Y  c #B38934",
"T  c #FD820C",
"R  c #F78609",
"E  c #FC8414",
"W  c #FE8A15",
"Q  c #F5811C",
"!  c #FC831B",
"~  c #F78D1A",
"^  c #FC8C1B",
"/  c #F68515",
"(  c #FD931C",
")  c #F89316",
"_  c #F2910F",
"`  c #F5A11D",
"'  c #D78533",
"]  c #F58323",
"[  c #FC8324",
"{  c #F68C24",
"}  c #FA8C24",
"|  c #FB832B",
" . c #FD8B2C",
".. c #F5882D",
"X. c #FD9B26",
"o. c #FD942B",
"O. c #FD9B2C",
"+. c #F79327",
"@. c #E78B3A",
"#. c #FE8433",
"$. c #FE8B33",
"%. c #F58A37",
"&. c #EB973D",
"*. c #FC9433",
"=. c #F69938",
"-. c #EDA52B",
";. c #F4A625",
":. c #FDA12D",
">. c #F8A92A",
",. c #EBA538",
"<. c #FDA434",
"1. c #FEAB35",
"2. c #F3AB3B",
"3. c #FDAD3A",
"4. c #F6A538",
"5. c #FBB03D",
"6. c #91A542",
"7. c #8C986D",
"8. c #BD8268",
"9. c #85A26D",
"0. c #8CA175",
"q. c #92B274",
"w. c #AFAD6C",
"e. c #A99B54",
"r. c #D68545",
"t. c #CC8E4E",
"y. c #E68746",
"u. c #FE8D4C",
"i. c #F98844",
"p. c #EA9A47",
"a. c #F89948",
"s. c #E79A59",
"d. c #FA9857",
"f. c #E08953",
"g. c #D7A456",
"h. c #E8A74A",
"j. c #F5AC44",
"k. c #FCAB43",
"l. c #F5A749",
"z. c #F9B247",
"x. c #EDAC54",
"c. c #E9A659",
"v. c #F8A954",
"b. c #EAB35B",
"n. c #F5B251",
"m. c #FEBA5C",
"M. c #F8B658",
"N. c #D28763",
"B. c #CF926B",
"V. c #E69A61",
"C. c #FF9963",
"Z. c #F39F78",
"A. c #E79D79",
"S. c #D9A76A",
"D. c #DEB269",
"F. c #DAB07B",
"G. c #C3A464",
"H. c #E6A869",
"J. c #F9A96A",
"K. c #ECB667",
"L. c #F4B362",
"P. c #FCBA65",
"I. c #FABD6C",
"U. c #F6B963",
"Y. c #EAAD73",
"T. c #F1A976",
"R. c #EAB675",
"E. c #F6BB74",
"W. c #ABC876",
"Q. c #D9C76F",
"!. c #FCC06B",
"~. c #FBC57B",
"^. c #FAC379",
"/. c #EBC36E",
"(. c #97AE8A",
"). c #A0B29C",
"_. c #AABAA0",
"`. c #D89F82",
"'. c #DFBD8F",
"]. c #E5A780",
"[. c #E8BA89",
"{. c #F7BC89",
"}. c #EAB193",
"|. c #B5D09D",
" X c #B3C6A3",
".X c #BCD5AB",
"XX c #E9C388",
"oX c #F8C787",
"OX c #EEC897",
"+X c #F8C597",
"@X c #FCD598",
"#X c #F7D08F",
"$X c #C5DAAD",
"%X c #EBC7A6",
"&X c #F7C7A8",
"*X c #FAD4A9",
"=X c #FEDCBB",
"-X c #FAD6B5",
";X c #EECAB4",
":X c #D0E9B7",
">X c #FFE3BC",
",X c #FDEAB4",
"<X c #F2F2AA",
"1X c #DAE48B",
"2X c #F5D6C7",
"3X c #F3DDD3",
"4X c #F8CFC9",
"5X c #C9E5C8",
"6X c #D9E6CA",
"7X c #DBF3C9",
"8X c #D7F2D7",
"9X c #FFE9C6",
"0X c #FEE6C9",
"qX c #FDF9CB",
"wX c #FFECD2",
"eX c #FFECDD",
"rX c #FFE5D0",
"tX c #EBFFDA",
"yX c #FFF2DC",
"uX c #FBFAD8",
"iX c #E4F4D0",
"pX c #FDEBE3",
"aX c #F6ECE7",
"sX c #EBF8E6",
"dX c #FFF3E4",
"fX c #F3FEE3",
"gX c #FEFBE4",
"hX c #FEF4EA",
"jX c #F5FFEC",
"kX c #FDFCEC",
"lX c #F2F7EE",
"zX c #F6EFF0",
"xX c #EEFCFC",
"cX c #FDF5F3",
"vX c #F6FFF4",
"bX c #FEFDF4",
"nX c #F5F6FC",
"mX c #FCF5FA",
"MX c #F5FEFE",
"NX c #FCFFFF",
"BX c #FFFEFF",
"VX c #FEFFFF",
"CX c white",
"ZX c #FEFEFF",
"AX c #FEFEFE",
"SX c #FEFEFE",
"DX c #F4F5F3",
"FX c #EAEAE5",
"GX c #D2DFCD",
/* pixels */
"CXCXCXCXCXCXCXCXCXCXCXCXCXCXCXCXAXCXNXNXNXNXMXNXnXNXNXnXNXNXDXNXMXMXMXNXNXCXCXAXCXCXAXAXAXAXAXNXNXCXAXbXNXbXMXbXNXNXCXCXCXCXAXAX",
"CXCXCXCXCXCXCXCXCXCXCXCXCXCXCXCXAXAXCXCXbXNXbXNXMXMXNXMXNXnXAXbXNXNXNXNXCXCXCXAXCXCXCXCXAXAXMXAXCXNXNXCXNXbXNXNXNXNXNXCXCXCXAXCX",
"CXCXCXCXCXCXCXCXCXCXCXCXCXCXCXCXAXAXCXAXCXbXCXCXNXnXCXNXCXkXbXcXbXbXvXcXbXkXbXbXbXbXbXAXAXAXbXNXCXCXCXCXCXCXCXCXNXNXCXCXCXCXCXCX",
"CXCXCXCXCXCXCXCXCXCXCXCXCXCXCXCXAXAXAXbXAXAXAXCXAXAXCXCXbXbX6XgXAXAXAXbXbXbXbXbXkXbXbXbXAXAXCXCXCXCXCXCXCXCXCXCXCXCXCXNXCXCXCXCX",
"CXCXCXCXCXCXCXCXCXCXCXCXCXCXCXCXAXAXAXAXmXAXAXAXAXmXCXDXjXgX0.gXSXmXAXCXCXCXAXAXCXCXCXAXmXAXAXCXAXAXAXAXAXAXCXCXCXCXCXCXCXAXCXbX",
"CXCXCXCXCXCXCXCXCXCXCXCXCXCXCXCXmXAXAXmXAXAXAXAXAXCXCXDXbX6X2 gXvXAXAXNXCXCXNXAXNXNXNXCXCXAXAXCXAXAXAXAXAXAXAXCXCXCXCXCXCXNXCXNX",
"CXCXCXCXCXCXCXCXCXCXCXCXCXCXCXCXAXAXAXAXAXAXCXAXAXAXAXvXbX XJ tXvXMXMXxXxXMXMXMXxXxXMXNXCXCXCXCXAXAXAXAXAXAXAXCXCXCXCXCXNXNXbXNX",
"CXCXCXCXCXCXCXCXCXCXCXCXCXCXCXCXCXAXCXAXCXAXCXCXAXnXNXvXjX0.0.tXfX8X8X5X5X5X5X5X8XsXsXvXvXbXbXbXAXCXCXCXAXAXAXmXAXCXCXCXCXbXNXbX",
"CXCXCXCXCXCXCXCXCXCXCXCXCXCXCXCXAXMXNXNXnXMXCXCXCXnXNXvX6XJ 9..Xq.C ; , : > A C P G P (.:XiXqXuXbXvXbXAXDXCXCXvXAXAXCXCXAXAXAXbX",
"CXCXCXCXCXCXCXCXCXCXCXCXCXCXCXCXMXMXMXNXCXCXAXcXDXaXkXkXqX7.7.qXW.b = N N b m B D I 9.G , , q.$X7XjXjXbXbXbXFXCXCXAXCXCXAXbXNXbX",
"CXCXCXCXCXCXCXCXCXCXCXCXCXCXCXCXNXMXNXCXbXbXkXgXkXgXdXuXqX7.4 <XQ.6.* * b B B : n K K S D A : > 9..XfXjXsXbXbXcXAXCXCXCXAXCXNXbX",
"CXCXCXCXCXCXCXCXCXCXCXCXCXCXCXCXCXAXbXhXgXwX9X>X*X*XOXOX@Xt.e.F.Q.Q.G.V $ $ b b B K Z M Z C C G C , q.iXtXfXbXbXbXCXAXCXAXNXNXNX",
"CXCXCXCXCXCXCXCXCXCXCXCXCXCXCXAXbXhXgXwX>X@X[.R.H.H.H.E.E.I.L.L.b.Q./.G.4 % $ = ; S K G I G C Z n : ; I 7XgXtXkXbXbXAXAXCXCXCXNX",
"CXCXCXCXCXCXCXCXCXCXCXCXCXCXAXAXkXyX>X@XXXK.b.M.P.v.v.!.v.l.l.&.a.4.&.' t.U - $ = < : > G G G K Z D n ; J :XfXkXbXAXbXCXCXCXCXCX",
"CXCXCXCXCXCXCXCXCXCXCXCXCXCXCXbXwX=XOXY.c.n.z.M.=.o.o.<.} { 0 ] w  .#.i ' Y 4 3 $ & & @ @ M m Z K M m B < F $XfXbXbXbXCXCXCXNXCX",
"NXCXCXCXCXbXAXAXCXCXCXCXCXbXbXgX&X^.H.b.h.2.-.+._ <./ W ^ O.E ! ! t y d -.' Y Y 3 % $ & O O @ @ m m b b n N 9.:XjXkXbXAXCXCXCXCX",
"MXMXCXCXAXbXbXbXNXNXNXCXmXkXuX#Xb.2.,.-.-.>.;.;.) _ _ ) ) ) R R ! f f f g s s p a a 3 % o . + @ O @ M m B S S C 7XtXjXbXCXCXAXmX",
"MXNXCXAXAXbXkXkXbXMXMXCXAXyX,X/.,.-.;.-.;.>.;.;.;.) ) ) R R 6 R e ! [ [ | g j j l p ' Y 4 = X   O O @ : M m S D H :XfXfXAXCXmXAX",
"MXMXCXCXCXbXbXbXMXNXAXAXbX9XXXb.,.,.-.,.2.5.5.5.5.1.<.X.( W T E 7 r d [ g g j j s u ' c.H.G.w.w.D #     # > C C C 9.7XjXsXaXCXAX",
"MXNXCXCXCXAXbXbXbXNXnXAXgX*XD.h.,.,.z.n.z.m.m.z.h.=.<.O.o.E 6 7 w Q [ | g g h j j u u y.c.Y.OX,XuX7X XH # X # A P 1 (.kXjXbXAXFX",
"AXAXAXAXCXAXAXbXMXNXAXcXwXoXh.h.l.M.m.P./.!.!.U.v.l.p.*.*.^ e 7 Q [ [  .#.g g g j h s l f.V.T.}.uXvXjXsX5Xq.1 o 2 P 0. XjXkXfXbX",
"AXAXAXAXAXCXNXbXNXNXmXhX>XR.&.2.M.P.I.^.~.~././.E.L.l.a.*.} ! e w r | | | g g g h j h v u.C.J.].kXvXlXbXvXvX7X X1 F L _.fXjXiXbX",
"AXCXAXAXCXCXNXvXNXvXAXhX&Xx.:.>.m.I.!.~.oX#X#X/.E.L.c.=. .Q w 8 9 y r | | g g h h h h h v u.d.Z.4XmXAXbXFXsXvXjXsX(.2 L _.sXbXvX",
"AXCXAXAXCXCXNXMXMXSXbXhX{.h.:.>.m.I.!.~.@X@X#XoXR.H.v.l.*./ 7 8 9 e d | g | g h h y y j v u.C.Z.4XmXmXAXbXbXbXsXsXxXsX).(.GXbXsX",
"bXAXAXAXAXCXMXNXMXbXbXyX{.p.X.>.m.I.I.~.oX#XoX^.R.L.l.=.{ / 8 6 q y f [ | | | r d d f g i.u.d.Z.;XmXmXAXNXbXbXvXxXvXvXMXvXvXMXNX",
"AXAXCXAXCXCXNXMXMXAXbXeX+Xp.X.>.z.P.U.!.^.~.^.!.b.x.a.=.~ E 6 6 q q t f [ [ | r [ [ | ..%.a.d.T.;XhXbXbXCXbXbXMXMXMXNXMXMXMXMXNX",
"bXAXCXAXCXNXNXNXvXSXAXeX+Xh.:.1.z.n.n.b.M.I.P.L.h.&.&.o.( W R 6 9 q q y r [ Q Q Q }  ...%.&.d.T.%XpXbXbXAXbXbXNXMXNXMXMXNXNXCXNX",
"AXAXAXAXCXNXbXbXNXbXbXdX&Xc.4.3.5.j.j.z.n.n.v.v.&.=.=.o.( T T 6 6 q 9 q e Q r Q Q Q { ..@.y.d.Y.%XhXbXbXbXbXNXNXNXMXNXNXNXCXCXCX",
"bXNXCXCXAXCXAXbXNXSXAXhX&XY.l.3.z.5.5.j.j.2.2.=.+.+.+.^ W E T T 6 9 9 7 w Q e Q e Q }  .=.p.d.T.;XhXbXbXAXbXNXNXNXNXNXCXNXAXAXAX",
"vXNXCXCXAXAXbXbXbXDXAXbX=X{.n.5.5.5.5.5.<.<.O.O.{ { ~ ! E T 8 8 6 9 7 7 w e e e t [ [  .%.a.d.H.2XbXbXbXbXAXNXNXMXNXNXAXCXCXAXAX",
"MXMXCXCXAXbXbXbXNXvXAXcX2X+Xb.j.2.1.3.1.1.<.O.o.~ ^ ! e e E 7 R 6 7 7 7 e E ! e ! ! | $.%.a.v.T.rXbXbXbXAXbXNXNXNXNXCXAXbXAXbXbX",
"NXNXCXCXAXAXbXbXAXbXAXcX0XOXR.x.,.2.3.1.<.<.X.o.~ W W W T T 8 7 7 7 7 / w e e e e !  .$.%.d.J.+XdXbXbXAXCXNXNXvXNXNXAXAXAXbXbXbX",
"CXCXCXCXCXCXNXbXCXbXbXkXfX=X'.S.h.5.z.3.1.:.X.X.( W W W T T 8 7 7 0 Q ] ] Q ! ! ! }  .*.p.V.{.=XbXCXCXAXCXCXCXCXNXCXCXCXAXAXAXbX",
"CXAXAXCXCXNXNXCXAXbXkXkXgXqX;XF.b.2.-.4.1.4.X.) ) ( W W W E T R w 0 d ] ] [ ! ! ! !  .a.s.S.OXgXbXCXCXCXCXCXCXCXCXCXCXCXCXCXCXCX",
"AXAXCXCXNXNXNXNXAXbXbXkXjXgX9XXXh.4.<.1.<.:.( ( ~ ~ ~ ! ! Q r r w w e f [ } ! e ! o.%.@.V.OXrXkXbXCXCXCXCXCXCXCXCXCXCXCXCXCXCXCX",
"AXAXCXCXCXNXNXNXAXAXbXkXkXgXyX*Xb.k.k.3.<.:.O.O.~ } ~ { { ] d d q q q t [ [ [ t | %.@.r.[.0XhXbXAXCXCXCXCXCXCXCXCXCXCXCXCXCXCXCX",
"AXAXAXAXCXNXNXNXAXCXbXbXbXkXgXyX@XP.p.&.l.k.=.{ o.o.o. .$.....f q q q t t [ f g %.p r.{.0XdXbXCXCXCXCXCXCXCXCXCXCXCXCXCXCXCXCXCX",
"AXAXAXCXCXNXNXNXbXMXbXAXbXhXkXgXqX*XR.H.s.h.l.&.=.+.o. .#.#.g h f t f f f | g %.p y.{.>XdXbXMXMXCXCXCXCXCXCXCXCXCXCXCXCXCXCXCXCX",
"AXAXAXCXCXNXNXNXMXNXNXbXbXbXbXbXhXdXrX-X[.S.c.c.p.=.*.$.$.#.j j #.#.#.j k k y.y.f.+X9XwXdXCXMXxXNXCXCXCXCXCXCXCXCXCXCXCXCXCXCXCX",
"AXCXAXCXCXCXNXNXMXMXNXnXSXCXCXDXAXAXAXhXrX%XR.s.s.l.a.d.a.u.u.u.u.u.u.y.y.v f.V.*X9XyXpXlXnXxXMXNXCXCXCXCXCXCXCXCXCXCXCXCXCXCXCX",
"AXAXAXCXCXCXNXNXNXNXNXNXNXNXCXNXMXnXnXAXcXeX-X[.t.t.c v r.v v v c c 5 x x N.A.}.&X4X3XaXnXMXMXMXCXCXCXCXCXCXCXCXCXCXCXCXCXCXCXCX",
"AXAXAXAXCXCXCXNXNXNXNXNXNXNXCXMXMXMXMXAXCXkXyX9X-X+X[.B.N.N.N.N.8.8.8.8.`.}.%X;X2X3XFXzXnXnXnXMXCXCXCXCXCXCXCXCXCXCXCXCXCXCXCXCX",
"AXCXAXCXCXCXCXCXNXNXCXCXNXNXNXNXNXAXAXAXAXcXkXgXgXgXdXyXyXdXpXdXeXeXpXpXyXeXeXpXaXzXmXmXAXAXAXAXCXCXCXCXCXCXCXCXCXCXCXCXCXCXCXCX",
"AXAXAXAXCXCXCXCXCXCXAXCXNXCXNXCXAXAXAXmXAXbXbXbXpXhXbXmXAXbXAXcXmXAXbXbXhXhXhXhXCXNXNXNXAXAXAXAXCXCXCXCXCXCXCXCXCXCXCXCXCXCXCXCX",
"CXCXCXCXCXAXCXAXAXCXAXCXCXCXAXAXAXbXAXAXbXAXbXmXCXAXAXAXMXMXMXMXAXCXAXbXbXbXAXAXCXMXMXMXNXCXbXbXAXCXCXCXCXCXCXCXCXCXCXCXCXCXCXCX",
"CXCXCXCXAXAXAXAXAXAXCXAXAXAXAXAXbXbXbXcXmXAXAXAXCXNXMXMXMXxXMXxXMXMXCXbXbXhXcXDXNXMXMXNXNXCXbXbXbXCXCXCXCXCXCXCXCXCXCXCXCXCXCXCX"
};
